<?xml version="1.0" encoding="iso-8859-1"?>
<!-- Generator: Adobe Illustrator 18.1.1, SVG Export Plug-In . SVG Version: 6.00 Build 0)  -->
<!DOCTYPE svg PUBLIC "-//W3C//DTD SVG 1.1//EN" "http://www.w3.org/Graphics/SVG/1.1/DTD/svg11.dtd">
<svg version="1.1" id="Layer_1" xmlns="http://www.w3.org/2000/svg" xmlns:xlink="http://www.w3.org/1999/xlink" x="0px" y="0px"
	 viewBox="0 0 100 60" style="enable-background:new 0 0 100 60;" xml:space="preserve">
<path id="AL" style="fill:#D3D3D3;" d="M37.309,55.356l0.288,0.122l0.744-1.28l0.907-2.109l1.109,0.384l1.296,3.073l-0.038,0.492
	l-1.402,0.832l1.318,0.251l2.656-1.031l0.144-3.754l-1.162-0.982l-0.908-1.062l0.35-1.954l5.228-0.336l12.766-0.442l3.322-0.038
	l2.754,0.264l-0.162-1.102l-0.708-0.451l-0.401-0.576l0.592-1.242l0.003-2.576l-0.615-2.277l0.59-2.48L67,34.783l-0.033-0.845
	l-0.859-0.414l-0.108-1.792L64.8,29.955l-0.735-3.277l-0.432-3.353l-0.694-2.531l-1.257-8.024l-1.42-4.024l-0.179-2.788l0.134-1.079
	l-4.462,0.049L44.147,5.113l-6.038-0.074l-0.344,3.144l-0.542,8.231L35.689,31.65L35,38.581l0.657,9.364l0.224,7.299L37.309,55.356z
	"/>
</svg>
