<?xml version="1.0" encoding="iso-8859-1"?>
<!-- Generator: Adobe Illustrator 18.1.1, SVG Export Plug-In . SVG Version: 6.00 Build 0)  -->
<!DOCTYPE svg PUBLIC "-//W3C//DTD SVG 1.1//EN" "http://www.w3.org/Graphics/SVG/1.1/DTD/svg11.dtd">
<svg version="1.1" id="Layer_1" xmlns="http://www.w3.org/2000/svg" xmlns:xlink="http://www.w3.org/1999/xlink" x="0px" y="0px"
	 viewBox="0 0 100 60" style="enable-background:new 0 0 100 60;" xml:space="preserve">
<path id="AK" style="fill:#D3D3D3;" d="M66.405,10.765l0.218,28.561l0.539,0.328l1.037,0.055l0.498-0.373l0.87-0.01l0.078,0.969
	l2.366,2.248l0.177,0.868l1.13-0.648l0.2-0.069l0.089-1.038l0.496-0.541l0.367-0.071l0.63-0.509l1.045,0.691l0.211,0.968l0.64,0.361
	l0.377,0.799l1.311,0.587l1.159,1.994l0.918,1.294l0.779,0.894l0.515,1.232l1.679,0.583l1.747,0.683l0.351,1.468l0.179,1.035
	l-0.322,1.141l-0.593,0.776l-0.538-0.262l-0.513-1.031l-0.909-0.492l-0.606-0.361l-0.265,0.271l0.512,0.897l0.081,1.237
	l-0.366,0.171l-0.643-0.628l-0.707-0.427l0.173,0.533l0.441,0.597l-0.265,0.271c0,0-0.269-0.097-0.438-0.33
	c-0.169-0.199-0.715-1.129-0.715-1.129l-0.343-0.765c0,0-0.095,0.436-0.331,0.338c-0.202-0.098-0.44-0.497-0.44-0.497l0.595-0.642
	l-0.507-0.496l-0.019-1.672l-0.268,0.003l-0.255,1.14l-0.366,0.171l-0.348-1.234l-0.214-1.235l-0.269-0.164l0.122,1.905l0.004,0.368
	l-0.506-0.429l-1.226-1.993l-0.704-0.159l-0.214-1.235l-0.546-0.964l-0.539-0.362l-0.009-0.769l0.697-0.443l-0.168-0.098
	l-0.867,0.21l-1.146-0.79l-0.88-0.96l-1.615-0.852l-1.347-0.855l0.423-1.075l-0.006-0.535l-0.596,0.542l-0.966,0.379l-1.241-0.354
	l-1.915-0.781l-1.839,0.021l-0.199,0.169l-2.188-1.28l-0.703-0.092l-0.925-1.93l-1.203,0.114l-1.198,0.515l0.184,1.503l0.357-0.974
	l0.336,0.097l-0.485,1.477l1.06-0.915l0.207,0.533l-1.288,1.486l-0.436-0.095l-0.174-0.634l-0.438-0.263l-0.431,0.373l-0.91-0.592
	l-1.029,0.714l-0.594,0.709l-1.129,0.715l-1.573-0.049l-0.175-0.7l1.235-0.214l-0.005-0.435l-0.771-0.192l0.325-0.806l0.755-1.313
	l-0.007-0.602l0.064-0.268l1.463-0.786l0.339,0.431l0.903-0.01l-0.444-0.865l-1.239-0.087l-1.662,0.922l-0.79,1.146l-0.592,0.876
	l-0.359,0.773l-1.399,0.517l-1.027,0.881l-0.094,0.536l0.773,0.326l0.275,0.699l-0.891,1.08l-2.158,1.429l-2.593,1.434l-0.698,0.376
	l-1.768,0.388L37.42,47.98l0.607,0.428l-0.496,0.507l-0.163,0.37l-0.907-0.324l-1.069,0.079l-0.259,0.772l-0.334,0.004l0.091-0.804
	L33.69,49.46l-0.966,0.345l-1.142-0.422l-0.963,0.646l-1.07,0.012l-0.697,0.443l-0.532,0.274l-0.703-0.092l-0.874-0.358
	l-0.767,0.209l-0.331,0.338l-0.539-0.362l-0.007-0.635l1.032-0.446l2.109,0.177l1.466-0.551l0.694-0.71l0.968-0.211l0.599-0.274
	l0.904,0.057l0.54,0.429l0.333-0.104l0.759-0.912l1.033-0.346l1.135-0.213l0.434-0.105l0.203,0.165l0.268-0.003l0.421-1.242
	l1.332-0.517l0.622-1.244l0.752-1.514l0.529-0.508l0.091-0.871l-0.53,0.441l-1.135,0.213l-0.21-0.8l-0.436-0.095l-0.331,0.338
	l-0.056,0.971l-0.502-0.061l-0.523-1.934l-0.43,0.44l-0.37-0.163l-0.107-0.634l-1.337,0.082l-0.698,0.376l-0.871-0.091l0.496-0.507
	l0.158-0.871l-0.208-0.633l0.498-0.34l0.434-0.072l-0.207-0.6l-0.016-1.471l-0.338-0.331l-0.262,0.505l-2.04,0.023l-0.506-0.429
	l-0.215-1.302l-0.716-1.196l-0.004-0.334l0.699-0.275l0.059-0.703l0.364-0.372l-0.269-0.164l-0.433,0.172L30.9,30.192l0.316-1.676
	l1.493-1.087l0.864-0.545l0.622-1.244l0.898-0.445l0.874,0.358l0.109,0.802l0.802-0.109l1.061-0.815l0.537,0.195l0.337,0.197
	l0.535-0.006l0.764-0.443l0.251-1.474c0,0,0.09-0.971,0.322-1.141c0.199-0.169,0.331-0.338,0.331-0.338l-0.375-0.631l-0.867,0.277
	l-1.067,0.279l-0.637-0.16l-1.211-0.589l-1.673-0.048l-1.218-1.224l0.153-1.306l0.192-0.805l-0.709-0.594l-0.649-1.23l0.164-0.269
	l2.272-0.193l0.702-0.008l0.338,0.331l0.201-0.002l-0.073-0.534l1.302-0.215l0.871,0.091l0.506,0.362l-0.494,0.708l-0.162,0.504
	l0.909,0.525l1.679,0.583l0.598-0.341l-0.786-1.463L40.635,15.4l0.331-0.271l-1.144-0.623l-0.171-0.366l0.161-0.537l-0.282-1.301
	l-0.987-1.561l-0.818-1.396l0.963-0.646l1.07-0.012l0.604,0.194l1.404-0.083l1.224-1.218l0.356-1.041l1.228-0.816l0.539,0.328
	l0.901-0.211l1.23-0.716l0.367-0.071l0.337,0.264l1.504-0.084l0.891-1.047l0.368-0.004l1.213,0.789l0.643,0.695l-0.163,0.37
	l0.205,0.366l0.529-0.541l1.305,0.086l0.114,1.236l0.641,0.495l2.377,0.174l2.123,1.381l0.498-0.34l1.749,0.85l0.7-0.208
	l0.632-0.275l1.612,0.618L66.405,10.765z M28.02,20.859l0.722,1.765l-0.063,0.335l-0.971-0.09l-0.617-1.331l-0.608-0.495
	l-0.803,0.009l-0.077-0.869l0.593-0.809l0.377,0.799l0.507,0.496L28.02,20.859z M27.275,32.072l1.24,0.254l1.241,0.321l0.271,0.331
	l-0.521,1.243l-1.037-0.055l-1.15-1.191L27.275,32.072z M20.3,27.434l0.378,0.865l0.374,0.531l-0.365,0.272l-0.714-1.029
	l-0.007-0.635L20.3,27.434z M15.991,51.932l1.128-0.782l1.133-0.347l0.871,0.091l0.173,0.533l0.637,0.16l0.628-0.643l-0.106-0.534
	l0.901-0.211l0.98,0.859l-0.361,0.606l-1.467,0.384l-0.905-0.157l-1.241-0.354l-1.466,0.518l-0.534,0.106L15.991,51.932z
	 M32.328,50.244l0.542,0.629l0.696-0.543l-0.506-0.429L32.328,50.244z M33.309,51.237l0.359-0.773l0.703,0.092l-0.26,0.638
	l-0.803,0.009L33.309,51.237z M41.194,50.513l0.508,0.596l0.33-0.372l-0.275-0.632L41.194,50.513z M44.091,46.3l0.39,1.936
	l0.973,0.257l1.661-0.989l1.462-0.886l-0.544-0.797l0.158-0.805l-0.697,0.443l-0.973-0.257l0.531-0.374l0.638,0.26l1.298-0.617
	l0.162-0.504l-0.806-0.259l0.26-0.638l-0.896,0.645l-1.558,1.221l-1.594,0.988L44.091,46.3z M58.163,39.521l0.797-0.511
	l-0.341-0.598l-0.598,0.341L58.163,39.521z"/>
</svg>
