<?xml version="1.0" encoding="iso-8859-1"?>
<!-- Generator: Adobe Illustrator 18.1.1, SVG Export Plug-In . SVG Version: 6.00 Build 0)  -->
<!DOCTYPE svg PUBLIC "-//W3C//DTD SVG 1.1//EN" "http://www.w3.org/Graphics/SVG/1.1/DTD/svg11.dtd">
<svg version="1.1" id="Layer_1" xmlns="http://www.w3.org/2000/svg" xmlns:xlink="http://www.w3.org/1999/xlink" x="0px" y="0px"
	 viewBox="0 0 100 60" style="enable-background:new 0 0 100 60;" xml:space="preserve">
<path id="AZ" style="fill:#D3D3D3;" d="M28.483,43.68l-0.03,0.621l0.261,0.372l8.24,3.166l5.32,2.328l6.426,2.574l7.354,3.01
	l5.088,0.226l10.372-0.441l0.033-16.279l-0.376-21.765L71.077,4.767L60.973,4.798l-25.06-0.775l-0.014,0.454l-0.054,6.789
	l-0.616,1.654l-1.138,0.088l-0.639-0.973l-1.069-0.005l-0.548-0.37l-0.436,0.106l-0.742,0.81l0.288,2.751l-0.03,0.621l0.55,5.055
	l-0.459,1.055l0.037,1.351l1.426,1.842l0.773,2.145l0.347,0.4l0.496,0.296l-0.017,0.989l-0.611,0.584l-1.271,0.847l-0.535,0.82
	l-0.427,1.543l0.093,2l-1.032,1.346l-0.71,0.476l0.308,2.337l-0.145,0.679l0.249,0.292l1.592-0.074l-0.182,1.26l-0.539,1.067
	l-1.463,0.383L28.483,43.68z"/>
</svg>
