<?xml version="1.0" encoding="iso-8859-1"?>
<!-- Generator: Adobe Illustrator 18.1.1, SVG Export Plug-In . SVG Version: 6.00 Build 0)  -->
<!DOCTYPE svg PUBLIC "-//W3C//DTD SVG 1.1//EN" "http://www.w3.org/Graphics/SVG/1.1/DTD/svg11.dtd">
<svg version="1.1" id="Layer_1" xmlns="http://www.w3.org/2000/svg" xmlns:xlink="http://www.w3.org/1999/xlink" x="0px" y="0px"
	 viewBox="0 0 100 60" style="enable-background:new 0 0 100 60;" xml:space="preserve">
<path id="AR_1_" style="fill:#D3D3D3;" d="M78.247,11.637l-4.317-0.548l0.644-2.085L76.7,7.283l0.432-1.547l-1.183-1.981
	L54.377,4.194L38.622,4.396L22.669,4.324l0.933,4.681l-0.031,5.746l0.819,7.383l-0.242,25.82l1.401,1.106l2.041-0.776l1.946,0.845
	l0.153,6.83l17.033,0.159l18.121-0.228l0.63-1.274l-0.158-2.572l-1.113-2.115l1.03-0.929l-0.921-1.503l0.501-1.614l0.812-3.975
	l1.852-1.523l-0.515-1.496l2.769-3.738l1.702-0.714l-0.048-1.15l-0.318-1.155l2.027-3.886l1.702-0.714l0.174-2.228l1.436-0.922
	l0.656-2.76l-0.9-2.72l2.866-1.573l0.227-1.416l0.86-2.824l0.644-2.085L78.247,11.637z"/>
</svg>
