<?xml version="1.0" encoding="iso-8859-1"?>
<!-- Generator: Adobe Illustrator 18.1.1, SVG Export Plug-In . SVG Version: 6.00 Build 0)  -->
<!DOCTYPE svg PUBLIC "-//W3C//DTD SVG 1.1//EN" "http://www.w3.org/Graphics/SVG/1.1/DTD/svg11.dtd">
<svg version="1.1" id="Layer_1" xmlns="http://www.w3.org/2000/svg" xmlns:xlink="http://www.w3.org/1999/xlink" x="0px" y="0px"
	 viewBox="0 0 100 60" style="enable-background:new 0 0 100 60;" xml:space="preserve">
<path id="CA_1_" style="fill:#D3D3D3;" d="M74.443,56.557l-5.249,0.716l-2.674,0.33l-0.257-0.426l-0.672-2.413l-0.306-0.8
	l-0.968-0.892l-0.37-0.533l-1.301-0.799l-1.081-0.999l-0.707,0.142l-0.879,0.024l-0.149-0.235l0.342-0.261l-0.383-0.778
	l-0.535-0.432l-1.289,0.138l-1.151-0.26l-0.447-0.512l-1.011-1.046l-0.966-0.588l-0.744,0.207l-1.151-0.26l-1.284-0.14l-1.114,0.172
	l-0.809-0.521l-0.008-0.523l-0.046-1.951l0.069-0.545l-0.172-0.616l-0.482-0.142l-0.336-0.709l-0.571-0.56L46.456,40.1l-0.555-0.703
	l-0.721-1.099l-0.79-1.246l-1.136-0.9l-0.336-0.709l-0.074-1.058l0.282-0.079l0.425-0.561l0.025-1.003l-0.45-0.621l-0.729,0.065
	l-0.674-0.531l-0.804-0.799l-0.638-2.09l0.018-0.531l-0.011-0.633l-0.043-0.652l-1.914-1.209l-0.15-0.539l0.041-0.15l-0.152-0.843
	l-0.62-0.934l-0.934-1.067l-1.015-0.962l-0.741-0.872l-0.008-1.021l-0.261-1.532l0.24-0.924l-0.388-1.69l-0.54-0.845l-0.711-0.963
	l-0.993-0.885l-0.024-0.879l0.085-1.185l0.405-0.334l-0.002-0.304l0.61-0.889l0.49-3.401l-0.478-1.914l0.083-1.379l10.774,0.261
	l7.043-0.137l0.186,8.606l0.143,9.116l4.615,4.024l15.277,12.974l6.256,5.475l0.119,0.824l1.091,1.134l0.669,1.307l0.364,0.313
	l0.223,0.104l0.049,0.374l-0.288,0.357l-0.758,0.654l-0.337,0.675l-0.157,1.123l0.208,1.242l-0.488,0.828l-0.512,0.447l0.418,1.598
	l-0.018,0.531l0.378,0.365l0.791-0.138l0.012,0.439l-0.216,0.613l-0.958,0.433L74.443,56.557z M51.978,49.293l0.441,0.292
	l0.042,0.348l-0.828,0.203l-0.24-0.265l-0.261-0.342L51.978,49.293z M52.466,49.157l0.265-0.24l1.074,0.281l0.881,0.086
	l-0.188,0.218l-1.169,0.271l-0.525-0.296L52.466,49.157z M59.195,52.758l0.627,0.462l0.277,0.199l0.428,0.047l0.047-0.428
	l-0.385-0.39l-0.836-0.32l-0.268,0.13l0.086,0.308L59.195,52.758z M59.458,55.091l0.691,0.693l0.444,0.402l-0.371,0.159
	l-0.419-0.215c0,0-0.287-0.335-0.316-0.438s-0.157-0.565-0.157-0.565L59.458,55.091z"/>
</svg>
