<?xml version="1.0" encoding="iso-8859-1"?>
<!-- Generator: Adobe Illustrator 18.1.1, SVG Export Plug-In . SVG Version: 6.00 Build 0)  -->
<!DOCTYPE svg PUBLIC "-//W3C//DTD SVG 1.1//EN" "http://www.w3.org/Graphics/SVG/1.1/DTD/svg11.dtd">
<svg version="1.1" id="Layer_1" xmlns="http://www.w3.org/2000/svg" xmlns:xlink="http://www.w3.org/1999/xlink" x="0px" y="0px"
	 viewBox="0 0 100 60" style="enable-background:new 0 0 100 60;" xml:space="preserve">
<path id="GA" style="fill:#D3D3D3;" d="M68.931,51.618l-2.876-0.635l-0.805,0.763l0.603,2.519l-0.345,2.012l-1.114-0.418
	l0.042-1.568l-2.702-0.252l-2.788,0.107l-16.873-0.579l-3.986-0.529l-0.669-0.691l-1.09-2.355l-0.256-1.753l-0.788-0.545
	l-0.236-0.284l0.574-1.099l0.059-2.877l-0.613-2.416l0.653-2.507l1.116-2.411l0.017-1.309l-0.953-0.456l-0.053-1.682l-1.285-1.954
	l-0.687-3.313l-0.44-3.71l-0.651-2.576l-1.199-8.497l-1.431-4.326L30,5.484l0.163-1.19l1.729,0.004l7.143-0.172l9.76-0.137
	l3.326-0.266l0.192,0.752l-1.187,0.361l-0.574,1.099l0.111,1.058l0.65,0.899l2.103,1.611l1.667,0.103l1.435,2.597l0.234,0.86
	l1.059,1.566l0.177,0.907l2.355,1.163l1.452,1.288l1.05,1.67l1.132,0.787l0.952,1.032l0.596,1.471l0.999,1.089l2.043,1.134
	l1.112,3.248l0.636,2.732l1.421,0.499l0.999,1.089l0.763,3.058l1.429,0.972l0.922-0.333L76,37.08l-2.015,3.061l0.134,1.375
	l-0.983,2.109l-1.68,5.084l0.11,3.312L68.931,51.618z"/>
</svg>
