<?xml version="1.0" encoding="iso-8859-1"?>
<!-- Generator: Adobe Illustrator 18.1.1, SVG Export Plug-In . SVG Version: 6.00 Build 0)  -->
<!DOCTYPE svg PUBLIC "-//W3C//DTD SVG 1.1//EN" "http://www.w3.org/Graphics/SVG/1.1/DTD/svg11.dtd">
<svg version="1.1" id="Layer_1" xmlns="http://www.w3.org/2000/svg" xmlns:xlink="http://www.w3.org/1999/xlink" x="0px" y="0px"
	 viewBox="0 0 100 60" style="enable-background:new 0 0 100 60;" xml:space="preserve">
<path id="HI_1_" style="fill:#D3D3D3;" d="M8,9.907l1.406-2.664l1.702-0.222l0.222,0.592L9.776,9.907H8z M15.549,7.168l4.515,1.924
	l1.554-0.222l1.184-2.886l-0.444-2.516l-3.108-0.37l-2.96,1.332L15.549,7.168z M38.27,14.569l2.738,4.07l1.776-0.222l0.814-0.37
	l1.11,0.962l2.738-0.148l0.74-1.11l-2.146-1.332l-1.406-2.738l-1.554-2.664l-4.292,2.146L38.27,14.569z M53.219,21.156l0.962-1.406
	l3.478,0.74l0.444-0.37l4.515,0.444l-0.222,0.962l-1.924,1.11l-3.256-0.222L53.219,21.156z M57.142,25.004l1.406,2.886l2.294-0.814
	l0.222-1.184l-1.184-1.554l-2.738-0.222L57.142,25.004z M62.322,24.116l1.702-2.146l3.478,1.776l3.256,0.814l3.256,1.998v1.406
	l-2.664,1.332l-3.552,0.74l-1.776-1.11L62.322,24.116z M74.608,35.662l1.184-0.962l2.516,1.184l5.625,2.664l2.516,1.554l1.184,1.776
	l1.406,3.256L92,47.059l-0.222,0.962l-2.886,2.368l-3.108,1.11l-1.11-0.444l-2.294,1.332l-1.776,2.368L78.9,56.902l-1.332-0.148
	l-2.664-1.924l-0.222-3.33l0.444-1.776l-1.184-4.219l-1.554-1.332l-0.148-1.924l1.702-0.74l1.554-2.294l0.37-0.74l-1.184-1.332
	L74.608,35.662z"/>
</svg>
