<?xml version="1.0" encoding="iso-8859-1"?>
<!-- Generator: Adobe Illustrator 18.1.1, SVG Export Plug-In . SVG Version: 6.00 Build 0)  -->
<!DOCTYPE svg PUBLIC "-//W3C//DTD SVG 1.1//EN" "http://www.w3.org/Graphics/SVG/1.1/DTD/svg11.dtd">
<svg version="1.1" id="Layer_1" xmlns="http://www.w3.org/2000/svg" xmlns:xlink="http://www.w3.org/1999/xlink" x="0px" y="0px"
	 viewBox="0 0 100 60" style="enable-background:new 0 0 100 60;" xml:space="preserve">
<path id="ID" style="fill:#D3D3D3;" d="M38.071,3.503l-0.456,6.229l-0.122,7.379l-0.062,5.731l0.515,3.307l0.706,1.425l1.366,0.667
	l0.195,1.34l-1.027,1.755l-1.082,2.542l-0.11,1.044l-0.333,0.454l-0.557,0.393l-1.102,2.087l0.073,1.079l-0.062,0.4l0.271,0.299
	l0.875-0.209l0.528,0.706l-0.424,2.129l-0.124,1.506l-0.609,12.567l7.325,0.133l13.931,0.021l12.216-0.273l-0.303-10.235
	l-0.333-8.431l-1.077-0.632l-0.311-0.855l-0.345-0.319l-0.645,0.481l-0.062,0.929l-1.052,0.385l-1.431-0.28l-1.282,0.29
	l-0.801,0.406l-1.254-0.28L60.304,37.9l-0.68,0.84l-0.752-0.239l-0.507-1.31l0.042-1.031l-1.043-0.815l-1.294-0.66l-1.798-4.262
	l-0.35-1.588l-0.109-0.014l-0.041,0.149l-1.494,1.531l-0.59,0.047l-1.213-0.958l-0.277-1.038l1.222-6.282l-0.266-0.631l-1.231-0.161
	l-0.283-0.36l-1.115-0.999l-2.249-3.161l-1.189-0.304l-1.012-1.545l0.129-1.658l-1.596-2.356L42.654,3.5L38.071,3.503z"/>
</svg>
