<?xml version="1.0" encoding="iso-8859-1"?>
<!-- Generator: Adobe Illustrator 18.1.1, SVG Export Plug-In . SVG Version: 6.00 Build 0)  -->
<!DOCTYPE svg PUBLIC "-//W3C//DTD SVG 1.1//EN" "http://www.w3.org/Graphics/SVG/1.1/DTD/svg11.dtd">
<svg version="1.1" id="Layer_1" xmlns="http://www.w3.org/2000/svg" xmlns:xlink="http://www.w3.org/1999/xlink" x="0px" y="0px"
	 viewBox="0 0 100 60" style="enable-background:new 0 0 100 60;" xml:space="preserve">
<path id="IL_1_" style="fill:#D3D3D3;" d="M63.435,11.353l-0.26-1.115l-0.437-1.592L62.12,7.844l-0.553-1.136L61.56,4.387
	l-6.729,0.289l-7.335-0.091l-5.164-0.361l0.022,0.888l0.897,0.442l0.421,0.62l0.127,0.6l1.538,1.542l0.223,1.028l-0.391,1.365
	l-0.822,1.504l-0.415,1.11l-1.063,0.727l-0.815,0.196l-2.221,0.393l-0.666,1.683l0.22,0.479l0.745,0.812l-0.21,1.8l-0.929,0.61
	l-0.248,0.531L38.66,21.73l-0.773,0.199l-0.623,0.463l-0.203,0.492l0.109,0.851l-0.71,0.499L36,25.383l0.011,1.646l0.76,3.007
	l2.716,3.396l2.285,1.721l-0.129,1.847l0.259,0.524l2.753,0.446l1.093,0.667l-0.397,1.449l-1.106,2.539l-0.424,1.236l0.731,1.612
	l2.532,2.413l1.992,0.477l0.774,2.206l0.74,1.486l-0.46,1.149l0.518,1.64l0.652,0.932l0.681-0.079l0.484-0.894l1.058-0.643
	l1.205-0.338l2.488,1.229l0.216-0.069l0.032-0.462l-0.425-1.169l0.25-1.164l1.055-0.601l1.463-0.404l-0.172-0.56l-0.277-0.863
	l0.542-0.511l0.499-1.104l0.117-1.679l0.312-2.046l1.138-1.186l0.867-1.543L64,40.083l-0.054-2.24l-0.662-1.396l-0.029-1.394
	l0.491-2.202l-0.083-3.044l0.002-6.666l-0.139-6.465l-0.034-4.939L63.435,11.353z"/>
</svg>
