<?xml version="1.0" encoding="iso-8859-1"?>
<!-- Generator: Adobe Illustrator 18.1.1, SVG Export Plug-In . SVG Version: 6.00 Build 0)  -->
<!DOCTYPE svg PUBLIC "-//W3C//DTD SVG 1.1//EN" "http://www.w3.org/Graphics/SVG/1.1/DTD/svg11.dtd">
<svg version="1.1" id="Layer_1" xmlns="http://www.w3.org/2000/svg" xmlns:xlink="http://www.w3.org/1999/xlink" x="0px" y="0px"
	 viewBox="0 0 100 60" style="enable-background:new 0 0 100 60;" xml:space="preserve">
<path id="IN" style="fill:#D3D3D3;" d="M41.696,6.411l0.821,0.685l0.667-0.107l1.358-0.986L46.13,5.1l8.499,0.26l10.96,0.108
	l-0.042,9.238l0.182,25.42l-0.538,1.671l0.665,1.026l0.035,0.779l-1.457,0.797l-2.23,0.773l-1.912,0.032l-0.6,2.797l-2.999,1.823
	l-1.963,2.173l-0.035,1.427l-0.384,0.793l-2.063-0.222l-0.717-1.091l-3.256,1.438l-0.079,1.84l-0.543,0.061l-0.238-0.562
	l-1.307-1.154l-2.217,0.655l-1.009,1.62l-0.669-0.43l-0.829-1.163l-2.625,0.015l-3.423,0.227l-1.556,0.607l0.165-1.532l0.534-2.745
	l1.54-1.563l1.309-2.184l1.858-2.304l0.074-3.45l-0.864-1.942l0.026-1.905l0.808-3.073l0.038-4.229l0.27-7.484l0.439-17.9
	L41.696,6.411z"/>
</svg>
