<?xml version="1.0" encoding="iso-8859-1"?>
<!-- Generator: Adobe Illustrator 18.1.1, SVG Export Plug-In . SVG Version: 6.00 Build 0)  -->
<!DOCTYPE svg PUBLIC "-//W3C//DTD SVG 1.1//EN" "http://www.w3.org/Graphics/SVG/1.1/DTD/svg11.dtd">
<svg version="1.1" id="Layer_1" xmlns="http://www.w3.org/2000/svg" xmlns:xlink="http://www.w3.org/1999/xlink" x="0px" y="0px"
	 viewBox="0 0 100 60" style="enable-background:new 0 0 100 60;" xml:space="preserve">
<path id="IA_1_" style="fill:#D3D3D3;" d="M76.266,7.992l1.476,1.522l0.207,0.503l-1.46,2.12l0.171,2.859l1.812,2.955l2.196,1.176
	l1.71,0.24L83,20.66l0.117,1.715l1.774,0.741l0.631,0.795l0.34,1.148l2.677,2.397l0.408,1.363l-0.532,2.134l-1.253,2.623
	l-0.454,1.707l-1.516,1.12l-1.148,0.34l-4.085,1.009l-1.194,3.409l0.552,1.294l1.197,1.089l-0.181,2.496l-1.371,0.979l-0.519,1.277
	l-0.026,1.713l-1.004,0.27l-1.229,0.981l-0.375,1.208l0.267,1.218l-0.939,0.7l-1.613-1.952l-0.969-2.014l-5.934,0.482l-7.145,0.321
	l-35.134,0.326l-1.096-3.087l-0.213-4.787l-0.954-3.013l-0.444-3.72l-1.531-2.665l-0.664-3.294l-1.843-5.597l-0.725-4.009
	l-0.979-1.371l-0.897-2.084l1.255-2.694l0.922-4.342l-1.904-1.6l-0.188-1.716l0.526-1.706l1.288-0.195l43.622,0.23l15.141-0.271
	L76.266,7.992z"/>
</svg>
