<?xml version="1.0" encoding="iso-8859-1"?>
<!-- Generator: Adobe Illustrator 18.1.1, SVG Export Plug-In . SVG Version: 6.00 Build 0)  -->
<!DOCTYPE svg PUBLIC "-//W3C//DTD SVG 1.1//EN" "http://www.w3.org/Graphics/SVG/1.1/DTD/svg11.dtd">
<svg version="1.1" id="Layer_1" xmlns="http://www.w3.org/2000/svg" xmlns:xlink="http://www.w3.org/1999/xlink" x="0px" y="0px"
	 viewBox="0 0 100 60" style="enable-background:new 0 0 100 60;" xml:space="preserve">
<path id="KY" style="fill:#D3D3D3;" d="M11.789,49.099l9.06,0.416l0.37-2.924l3.075,0.313l21.969-0.078l32.56,0.205l4.266-2.167
	l2.941-1.218l0.21-1.351l4.857-5.141l3.193-2.276l1.676-1.563l-2.214-1.67l-1.591-2.112l-1.869-2.935l-0.198-1.609l-1.757-1.19
	l-0.505-1.424l0.301-4.376l-1.714-1.619l-1.279-0.925l-0.19-1.681l-0.944,0.048l-1.517,0.713l-1.984,1.749l-1.235-1.354
	l-1.751-0.539L75.7,15.215l-1.645-0.167l-1.142-1.561l-3.997-0.479l-0.96-3.348l-1.965-1.283l-1.56,0.419l-3.018-0.162l-0.51,1.465
	l0.749,1.16l0.062,1.523l-2.147,1.226l-2.848,1.011l-1.888,0.097l-0.685,3.181l-3.765,2.218l-2.128,2.457l-0.017,1.588l-0.811,1.579
	l-3.21-0.399l-0.835-1.024l-2.949,1.289l-0.097,2.374l-1.76,0.255l-0.47-1.059l-1.128-0.982l-2.011,0.59l-1.542,2.372l-1.5-0.875
	l-0.885-1.246l-2.675,0.017l-4.077,0.308l-2.097,0.726l-1.105,2.344L20.3,31.471l0.804,2.755l-3.105,0.696l-1.46,0.863l-0.446,1.544
	l0.684,1.803l-0.16,1.573l-1.173,0.17l-4.18-2.231l-1.71,0.476l-1.532,0.856l-0.703,1.229l1.041,1.84l-0.774,1.222l-0.311,2.352
	l-1.811,0.755l-1.625,1.063L11.789,49.099z"/>
</svg>
