<?xml version="1.0" encoding="iso-8859-1"?>
<!-- Generator: Adobe Illustrator 18.1.1, SVG Export Plug-In . SVG Version: 6.00 Build 0)  -->
<!DOCTYPE svg PUBLIC "-//W3C//DTD SVG 1.1//EN" "http://www.w3.org/Graphics/SVG/1.1/DTD/svg11.dtd">
<svg version="1.1" id="Layer_1" xmlns="http://www.w3.org/2000/svg" xmlns:xlink="http://www.w3.org/1999/xlink" x="0px" y="0px"
	 viewBox="0 0 100 60" style="enable-background:new 0 0 100 60;" xml:space="preserve">
<path id="LA_1_" style="fill:#D3D3D3;" d="M29.834,47.207l4.895-0.026l6.148,2.371l3.903,0.789l2.262-0.834l1.911,0.725l1.912,0.665
	l0.523-1.252l-1.911-0.725L47.9,49.171L46.3,48.154l0.512-0.89l1.89-0.544l1.058,0.94l1.106-0.569l1.92,0.424l0.859,1.478
	l0.137,1.394l2.711,0.267l1.052,1.121l-0.514,0.95l-0.8,0.458l0.935,0.997l5.002,2.334l2.198-0.716l0.65-1.43l1.581-0.312
	l1.115-0.871l0.766,0.629l0.427,1.766l-1.404,0.439l0.351,0.374l2.077-0.719l1.454-2.008l0.493-0.286l-1.262-0.221l0.514-0.95
	l-0.092-0.909l1.277-0.262l0.689-0.764l0.347,0.494l0.303,1.883l2.524,0.443l2.378,1.224l0.575,0.925l1.751,0.056l0.645,0.625
	l1.448-1.827L83,53.187l-0.785-0.025l-2.001-1.695l-3.486-0.594l-1.888-1.45l0.716-1.609l1.383,0.225l0.132-0.358l-1.067-0.638
	l0.01-0.302l1.932,0.061l1.146-1.837l-0.748-1.172l-0.129-1.636l-0.909,0.092l-1.187,1.231l-0.412,1.558l-1.86-0.422l-0.569-1.106
	L74.4,42.4l1.18-0.99l-1.203-3.966l-1.987-2.118l0.744-4.387l-0.111-0.306l-0.789,0.096l-20.008,0.21l-0.437-1.464l0.646-5.116
	l5.475-8.769l-0.493-1.587l0.853-0.215l0.28-1.2l-1.29-1.25l0.097-1.145L56.235,7.44l-0.144-3.086l0.074-0.421L40.214,3.91L25,3.487
	l0.055,5.863l0.24,5.748l0.231,2.243l1.483,2.766l0.459,2.673l2.481,3.704l0.122,1.877l0.347,0.494l-0.582,4.997l-1.778,2.723
	l0.678,1.472l-0.352,1.56l-0.623,4.391l-0.842,1.786l0.05,2.237L29.834,47.207z"/>
</svg>
