<?xml version="1.0" encoding="iso-8859-1"?>
<!-- Generator: Adobe Illustrator 18.1.1, SVG Export Plug-In . SVG Version: 6.00 Build 0)  -->
<!DOCTYPE svg PUBLIC "-//W3C//DTD SVG 1.1//EN" "http://www.w3.org/Graphics/SVG/1.1/DTD/svg11.dtd">
<svg version="1.1" id="Layer_1" xmlns="http://www.w3.org/2000/svg" xmlns:xlink="http://www.w3.org/1999/xlink" x="0px" y="0px"
	 viewBox="0 0 100 60" style="enable-background:new 0 0 100 60;" xml:space="preserve">
<path id="ME" style="fill:#D3D3D3;" d="M34.867,29.581l0.71,0.443l0.41-1.34l1.28-2.708l2.082-2.012l1.404-1.825l-0.6-1.537
	l0.947-3.092l0.57-0.389l0.838-1.265l0.134-0.805l0.655-2.505l1.685-2.189l2.899-4.129l1.745-1.833l0.67,0.205l0.638,0.308
	l-0.174,0.567l0.307,1.39l1.297,0.735l0.539-0.286l0.158-0.515l2.519-0.863l1.212-0.643l0.741,0.34l2.713,2.184l0.821,0.815
	l-0.03,16.845l3.092,0.947l0.112,1.105l-0.655,2.505l1.131,1.643l0.412,0.126l0.182-0.226l-0.084-0.646l1.522,0.184l0.648,1.382
	L68,34.769l-0.3,0.979l-1.824,2.091l-1.074,0.009l-2.241,1.061l-3.342,2.077c0,0-0.309-0.095-0.67-0.205
	c-0.309-0.095-0.184-1.24-0.184-1.24l-0.959-0.181l-0.752,0.615l-1.474,0.394l-0.752,0.615l0.588,1.026l-0.352,0.23l-0.684,1.312
	l-0.948-0.403l0.253-0.825l0.051-0.717l-0.82-0.082l-0.422-1.933l-1.287,0.338l0.433,0.978l-0.019,0.614l-0.617,0.544l-0.335,1.645
	l-0.149,0.856l-1.235,1.087l-1.573-0.2l-0.612,1.447l-3.221,0.761l-0.749,0.052l-0.588-1.026l-2.166,1.366l0.01,1.807l-0.978,0.433
	l-0.798,2.236l-1.561,3.073l-0.992-0.811l0.232-1.676L34,51.918l0.292-1.32L34.17,29.463L34.867,29.581z M51.214,43.381l1.01-0.536
	l0.548,0.788l-0.07,1.331l-1.018,0.195L51.214,43.381z M55.598,41.398l0.628,1.263c0,0,0.654,0.257,0.701,0.102
	c0.047-0.155,0.419-0.999,0.419-0.999l0.59-0.27l-0.128-1.054l-1.141,0.045L55.598,41.398z"/>
</svg>
