<?xml version="1.0" encoding="iso-8859-1"?>
<!-- Generator: Adobe Illustrator 18.1.1, SVG Export Plug-In . SVG Version: 6.00 Build 0)  -->
<!DOCTYPE svg PUBLIC "-//W3C//DTD SVG 1.1//EN" "http://www.w3.org/Graphics/SVG/1.1/DTD/svg11.dtd">
<svg version="1.1" id="Layer_1" xmlns="http://www.w3.org/2000/svg" xmlns:xlink="http://www.w3.org/1999/xlink" x="0px" y="0px"
	 viewBox="0 0 100 60" style="enable-background:new 0 0 100 60;" xml:space="preserve">
<path id="MD_1_" style="fill:#D3D3D3;" d="M89.689,50.675l2.719-3.885L94,41.529l-7.283-0.125l-6.552-0.912l-0.637-19.609
	l-1.39-6.647l-0.688-5.468L51.692,8.804L8,9.218l0,12.063l6.423-4.449l2.947-0.245l1.889-1.377l2.594-2.633l1.639,1.127l2.951,0.335
	l3.36-1.79l2.56-1.248l2.478-0.219l1.441,1.553l2.719,2.147l1.738,2.422l1.153,1.846l5.025,2.822l-1.295,3.115l6.036,3.596
	l2.908-2.457l3.601,3.592l-3.059,3.24l-1.493,3.541l-2.573,2.521l-0.452,2.349l0.163,0.959l1.958,1.884l3.567,1.962l4.831,0.813
	l3.252,1.785l2.284,0.787l1.57-2.134l-1.226-2.672l0.387-2.013l-2.233-2.865l-1.166-6.604l2.594-5.649l0.228-2.392l-1.175-1.734
	c0,0,2.022-1.467,2.173-2.25c0.129-0.671,1.011-2.241,1.011-2.241l2.405-1.045l2.469-1.381l0.344,1.226l-2.022,1.467l-2.25,3.859
	l0.099,1.295l1.949,0.723l-0.624,6.26l-2.564,0.667l-0.439,4.091l0.602-0.116l1.639-1.889l1.403,2.358l-2.069,1.11l-1.067,3.739
	l2.177,4.362l4.255,1.398l1.962-0.551l2.676,5.386l1.033,0.662L89.689,50.675z M73.427,47.78l0.693,3.033l-0.163,2.056l0.822,2.362
	c0,0,1.2-0.813,1.265-1.149c0.065-0.336-0.116-3.618-0.116-3.618l-0.288-2.723L73.427,47.78z"/>
</svg>
