<?xml version="1.0" encoding="iso-8859-1"?>
<!-- Generator: Adobe Illustrator 18.1.1, SVG Export Plug-In . SVG Version: 6.00 Build 0)  -->
<!DOCTYPE svg PUBLIC "-//W3C//DTD SVG 1.1//EN" "http://www.w3.org/Graphics/SVG/1.1/DTD/svg11.dtd">
<svg version="1.1" id="Layer_1" xmlns="http://www.w3.org/2000/svg" xmlns:xlink="http://www.w3.org/1999/xlink" x="0px" y="0px"
	 viewBox="0 0 100 60" style="enable-background:new 0 0 100 60;" xml:space="preserve">
<path id="MA" style="fill:#D3D3D3;" d="M67.922,48.419l-0.014-3.286l1.528-1.816l4.396-1.206l0.192,4.465l-1.206,2.312l-3.713,1.351
	l-0.291,1.365l3.03-1.496l6.633-5.011l5.877-1.461l6.171-0.828l0.288-3.364l-0.523-4.25l-1.897-3.829l-2.225-1.615l-2.925-0.337
	l-0.828,0.537l0.988,2.066l2.281-0.657l2.402,2.795l0.308,3.919l-2.981,1.935l-3.431,0.697l-4.77-1.729l-3.582-9.326l-2.385-4.218
	l-2.458-0.523l-1.734,0.773l-1.839-4.102l0.845-1.961l4.788-6.403l-2.681-6.85L62.588,7.75l-3.3,3.437l-26.353,1.101l-19.569-0.596
	L9.468,25.991L9,32.884l31.434-0.162l16.106-0.569l2.266,2.766l3.393,6.859l2.594,7.26L67.922,48.419z M84.583,53.962l3.207-0.317
	l1.177-2.176l1.336,0.427L91,55.328l-1.92,0.305l-5.354-0.997L84.583,53.962z M71.515,52.324l3.896-2.882l2.185,0.465l2.022,2.571
	l-3.568,0.668l-3.294,0.726L71.515,52.324z"/>
</svg>
