<?xml version="1.0" encoding="iso-8859-1"?>
<!-- Generator: Adobe Illustrator 18.1.1, SVG Export Plug-In . SVG Version: 6.00 Build 0)  -->
<!DOCTYPE svg PUBLIC "-//W3C//DTD SVG 1.1//EN" "http://www.w3.org/Graphics/SVG/1.1/DTD/svg11.dtd">
<svg version="1.1" id="Layer_1" xmlns="http://www.w3.org/2000/svg" xmlns:xlink="http://www.w3.org/1999/xlink" x="0px" y="0px"
	 viewBox="0 0 100 60" style="enable-background:new 0 0 100 60;" xml:space="preserve">
<path id="MI_1_" style="fill:#D3D3D3;" d="M52.125,57.081l7.453-0.038l0.037,0.433l3.882-0.219l4.701-0.22l0.061-0.228l0.132-0.573
	l0.947-1.354l0.835-0.584l0.109-1.979l0.677-0.56l0.436-0.076l0.209-1.384l0.689-1.105l0.403,0.272l0.055,0.239l0.302,0.106
	l0.771-0.317L74,45.961l-0.938-3.287l-0.557-3.602l-0.811-1.325l-0.939-0.791l-0.659,0.367l-1.573,0.554l-0.917,1.864l-1.179,1.332
	l-0.447,0.192l-0.558-0.287c0,0-0.95-0.675-0.851-0.899c0.099-0.225,0.376-1.915,0.376-1.915l1.362-0.379l0.433-1.285l0.327-0.983
	l0.986-0.531l0.249-3.877l-0.535-0.947l-0.473-0.357l-0.233-0.841l0.338-0.28l0.608,0.174l0.136-0.611l-0.925-0.945l-0.408-1.052
	l-1.005-0.095l-1.685-0.744l-2.002-1.515l-1.044-0.098l-0.254,0.21l-0.368-0.23l-1.115-1.002l-1.187,0.59l-1.205,0.783l-0.015,1.403
	l0.376,0.152l0.794,0.27l0.164,0.327l-1.034,0.214l-1.016,0.021l-0.645,0.641l-0.193,0.801l0.058,0.629l-0.085,2.137l-1.468,0.681
	l-0.225-0.099l0.153-1.624l0.59-0.88l0.319-0.906l-0.28-0.338l-0.764,0.24l-0.54,1.587l-1.084,0.327l-0.765,0.669l-0.114,0.379
	l0.203,0.331l-0.327,0.983l-0.907,0.109l-0.04,0.425l0.222,0.957l-0.648,2.318l-0.764,1.488l0.061,1.839l0.153,0.443l-0.397,0.899
	l-0.145,0.298l-0.214,1.033l1.173,2.451l0.884,2.618l0.405,1.91l-0.481,1.788l-0.605,2.283l-1.117,1.923l-0.214,1.033l-1.35,1.082
	L52.125,57.081z M41.891,27.879l-0.462-0.473l-0.317-4.086l-1.383-0.637l-0.573-0.951l-4.769-1.542l-1.042-0.527l-3.051-1.146
	l-2.979-0.671L26,15.656l0.289-0.168l1.073-0.211l1.475-0.758l0.036-0.387l0.254-0.21l2.356-0.168l0.997-0.647l1.777-0.651
	l0.125-0.495l0.84-1.052l0.725-0.244l0.568-0.648l0.973-0.805l1.788-0.767l1.835-0.022l0.385,0.465l-0.152,0.376l-1.467,0.252
	l-0.693,1.144l-0.918,0.225l-0.281,0.91l-1.044,1.15l-0.211,0.994l0.291,0.222l0.427-0.389l1.497-0.99l0.455,0.55l0.889,0.084
	l1.201,0.503l0.54,0.48l0.467,1.253l0.945,1.142l1.515,0.065l0.616-0.332l0.571,0.561l0.6,0.252l0.532-0.262l0.425,0.04l0.655-0.328
	l1.678-1.246l1.354-0.301l2.562,0.125l1.809-0.57l1.052-0.408l0.573,0.132l-0.208,2.203l0.182,0.134l1.092,0.415l0.753-0.124
	l2.416-0.396l0.465-0.385l0.562,0.248l-0.255,2.706l1.124,1.315l0.481,0.279l0.466,0.434l-0.513,0.069l-0.298-0.145l-1.412-0.328
	L61.407,21.1l-0.882-0.161l-1.292,0.463l-0.696-0.066l-2.195-0.714l-2.017-0.112l-0.829,0.936l-2.728-0.023l-0.957,0.222
	l-0.538,1.158l-0.543,0.378l-0.186-0.096l-0.522-0.673l-1.827,0.764l-0.232-0.022l-0.367-0.659l-0.317,0.048l-0.895,1.632
	l-0.532,1.51l-1.489,2.551L41.891,27.879z M32.508,4.959l0.772-0.746l0.88-0.229l2.23-1.311L37.3,2.525l0.175,0.212l-2.157,1.786
	l-1.345,0.614l-0.845,0.271L32.508,4.959z M64.661,20.51l0.141,0.988l1.23,0.194l0.546-0.417c0,0,0.016-0.584-0.096-0.633
	c-0.109-0.088-0.549-0.793-0.549-0.793l-0.858-0.003l-0.626,0.019l-0.156,0.414L64.661,20.51z"/>
</svg>
