<?xml version="1.0" encoding="iso-8859-1"?>
<!-- Generator: Adobe Illustrator 18.1.1, SVG Export Plug-In . SVG Version: 6.00 Build 0)  -->
<!DOCTYPE svg PUBLIC "-//W3C//DTD SVG 1.1//EN" "http://www.w3.org/Graphics/SVG/1.1/DTD/svg11.dtd">
<svg version="1.1" id="Layer_1" xmlns="http://www.w3.org/2000/svg" xmlns:xlink="http://www.w3.org/1999/xlink" x="0px" y="0px"
	 viewBox="0 0 100 60" style="enable-background:new 0 0 100 60;" xml:space="preserve">
<path id="MN" style="fill:#D3D3D3;" d="M33.215,9.35l-0.265,1.605l-0.047,4.223l0.635,2.076l0.766,1.374l0.16,4.086l0.678,5.539
	l0.706,3.01l0.135,2.634l-0.025,2.179l-0.666,0.733l-0.746,0.526l-0.007,0.617l0.362,0.703l1.67,1.458l0.273,1.319l-0.166,14.763
	l24.799,0.032l8.721-0.19l-0.178-2.47l-0.73-0.872l-2.939-1.925l-1.456-2.196l-1.394-0.386l-0.809-1.161l-1.316-0.015l-1.422-1.579
	l-0.173-2.881l0.059-1.603l0.631-1.227l-0.275-1.114l-1.137-1.288l0.933-2.498l2.239-1.62l0.5-0.57l-0.045-3.291l0.096-1.233
	l1.083-1.222l1.576-1.175l0.535-0.076l1.874-2.035l0.744-0.321l0.964-1.593l1.004-1.469l1.287-1.055l1.983-0.8l3.802-1.643
	l1.612-0.722l0.257-0.943L77.689,15.2l-0.293,0.449l-0.247-0.003l-0.726-1.283l-3.661,0.082l-0.415,0.324l-0.411-0.005l-0.2-0.537
	l-0.321-0.744l-1.071,0.194l-1.331,1.301l-0.662,0.322l-1.275-0.014l-1.065-0.423L66.022,14l-0.534-0.088l-0.208,0.203l-1.063-0.547
	l-0.192-1.195l-0.619,0.199l-0.21,0.409l-0.985-0.217l-2.168-1.011l-1.592-1.087l-1.193-0.013l-0.53-0.417l-0.949,0.236
	l-0.457,0.447l-0.129,0.533L53.22,11.43l0.01-0.864l-2.589-0.152l-0.116-0.618L48.55,9.773L47.9,9.108l-0.589-2.515l-0.304-2.265
	L46.23,3.989l-0.943-0.216l-0.248,0.079l-0.161,3.371L32.5,7.072L33.215,9.35z"/>
</svg>
