<?xml version="1.0" encoding="iso-8859-1"?>
<!-- Generator: Adobe Illustrator 18.1.1, SVG Export Plug-In . SVG Version: 6.00 Build 0)  -->
<!DOCTYPE svg PUBLIC "-//W3C//DTD SVG 1.1//EN" "http://www.w3.org/Graphics/SVG/1.1/DTD/svg11.dtd">
<svg version="1.1" id="Layer_1" xmlns="http://www.w3.org/2000/svg" xmlns:xlink="http://www.w3.org/1999/xlink" x="0px" y="0px"
	 viewBox="0 0 100 60" style="enable-background:new 0 0 100 60;" xml:space="preserve">
<path id="MO_1_" style="fill:#D3D3D3;" d="M77.544,54.193l0.323-3.064l2.221-1.724l0.999-0.5l0.031-1.509l0.381-0.825l-0.555-0.844
	l-1.252,0.13l-1.066-1.323l-0.836-2.359l0.496-1.343l-1.006-1.686l-0.887-2.412l-2.386-0.413l-3.478-2.986l-1.1-2.208l0.451-1.708
	l1.209-3.098l0.344-1.554l-0.978-0.541l-3.583-0.386l-0.552-1l0.044-2.133l-2.72-1.877l-3.662-4.135l-1.118-3.822l-0.215-2.19
	l0.39-1.241l-1.319-1.64L57.122,4.54l-4.014,0.334l-5.209,0.205L22.5,5.182l0.648,1.366l-0.076,1.143l1.158,1.897l1.519,2.061
	l1.581,1.594l1.35,0.132l0.717,0.587l-0.031,1.509l-0.953,0.813l-0.285,1.191l1.058,1.687l1.216,1.586l1.33,1.12l0.552,6.048
	l-0.844,20.8l0.199,2.971l12.331,0.149l12.129-0.115l16.921-0.329l1.105,1.948l-0.449,1.604l-1.639,1.267l-0.279,0.931l2.7,0.316
	l2.145-0.528L77.544,54.193z"/>
</svg>
