<?xml version="1.0" encoding="iso-8859-1"?>
<!-- Generator: Adobe Illustrator 18.1.1, SVG Export Plug-In . SVG Version: 6.00 Build 0)  -->
<!DOCTYPE svg PUBLIC "-//W3C//DTD SVG 1.1//EN" "http://www.w3.org/Graphics/SVG/1.1/DTD/svg11.dtd">
<svg version="1.1" id="Layer_1" xmlns="http://www.w3.org/2000/svg" xmlns:xlink="http://www.w3.org/1999/xlink" x="0px" y="0px"
	 viewBox="0 0 100 60" style="enable-background:new 0 0 100 60;" xml:space="preserve">
<path id="MT_1_" style="fill:#D3D3D3;" d="M87.916,13.42l1.608,25.202L90,45.321l-26.148,1.178l-21.791,0.269l0.158,4.966
	l-0.943-0.609l-0.345-1.06l-0.695-0.737l-1.332,0.878l-0.133,1.135l-0.979,0.288l-1.762-0.435l-1.776,0.324l-0.996,0.469
	l-1.494-0.433l-1.291,0.292l-0.783,0.97l-0.432-0.199l-0.537-1.43l0.085-1.439l-1.393-1.206l-1.606-0.861l-1.95-5.307l-0.406-2.298
	l-0.75-0.238l-0.192,0.476l-1.737,1.7l-0.529,0.039l-1.192-1.06l-0.279-1.204l1.869-7.936l-0.444-1.12l-1.598-0.247l-0.236-0.368
	l-1.414-1.337l-2.713-4.211l-1.5-0.468l-1.074-1.729l0.248-2.102L10,17.196l0.455-9.558l14.689,0.756l8.233,0.218l14.407,0.092
	l13.013-0.268l12.936-0.478l13.602-0.775L87.916,13.42z"/>
</svg>
