<?xml version="1.0" encoding="iso-8859-1"?>
<!-- Generator: Adobe Illustrator 18.1.1, SVG Export Plug-In . SVG Version: 6.00 Build 0)  -->
<!DOCTYPE svg PUBLIC "-//W3C//DTD SVG 1.1//EN" "http://www.w3.org/Graphics/SVG/1.1/DTD/svg11.dtd">
<svg version="1.1" id="Layer_1" xmlns="http://www.w3.org/2000/svg" xmlns:xlink="http://www.w3.org/1999/xlink" x="0px" y="0px"
	 viewBox="0 0 100 60" style="enable-background:new 0 0 100 60;" xml:space="preserve">
<path id="NE" style="fill:#D3D3D3;" d="M80.328,16.687l-0.67-1.387l-0.346-0.97l-1.819-0.911l-2.983-0.802l-1.38-0.682l-1.593,0.125
	l-2.261,0.337l-2.548,0.84l-3.783-2.369l-1.399-1.173l-6.552,0.632L29.466,9.875L7.563,9.401L6,36.325l20.395,1.211l-0.34,12.984
	l13.342,0.08l24.946-0.263l26.895-0.71L94,49.516l-1.424-1.787L90.884,45.4l0.005-1.414l-0.926-1.623l-1.294-3.145l-0.41-4.102
	l-0.96-2.482l-0.43-3.056l-1.503-2.214l-0.729-2.86l-1.913-4.779l-0.744-3.228L80.328,16.687z"/>
</svg>
