<?xml version="1.0" encoding="iso-8859-1"?>
<!-- Generator: Adobe Illustrator 18.1.1, SVG Export Plug-In . SVG Version: 6.00 Build 0)  -->
<!DOCTYPE svg PUBLIC "-//W3C//DTD SVG 1.1//EN" "http://www.w3.org/Graphics/SVG/1.1/DTD/svg11.dtd">
<svg version="1.1" id="Layer_1" xmlns="http://www.w3.org/2000/svg" xmlns:xlink="http://www.w3.org/1999/xlink" x="0px" y="0px"
	 viewBox="0 0 100 60" style="enable-background:new 0 0 100 60;" xml:space="preserve">
<path id="NH_1_" style="fill:#D3D3D3;" d="M62.264,52.973L64,50.28l-2.211-1.715l0.242-2.963l-3.52-1.94l0.404-2.826L56.647,3.727
	l-0.662-0.085l-0.914,1.335l-0.438-0.596L53.94,3.236l-1.809,1.407l-0.703,2.06l-1.445,7.845l1.113,3.005l-0.974,3.953l-4.673,3.53
	l-2.41,0.284l-0.159,0.644l0.581,1.996l-1.948,7.907l-2.819,8.277l-1.248,4.276l0.602,1.514l-1.248,4.276L36,55.475l0.67,1.238
	l4.961,0.052l13.48-0.092l2.22-2.281l4.108-0.841L62.264,52.973z"/>
</svg>
