<?xml version="1.0" encoding="iso-8859-1"?>
<!-- Generator: Adobe Illustrator 18.1.1, SVG Export Plug-In . SVG Version: 6.00 Build 0)  -->
<!DOCTYPE svg PUBLIC "-//W3C//DTD SVG 1.1//EN" "http://www.w3.org/Graphics/SVG/1.1/DTD/svg11.dtd">
<svg version="1.1" id="Layer_1" xmlns="http://www.w3.org/2000/svg" xmlns:xlink="http://www.w3.org/1999/xlink" x="0px" y="0px"
	 viewBox="0 0 100 60" style="enable-background:new 0 0 100 60;" xml:space="preserve">
<path id="NJ" style="fill:#D3D3D3;" d="M36.559,38.128l0.562-1.394l2.97-0.396l2.487-2.132l2.362-1.752l4.132-2.015l0.373-1.14
	l-4.522-5.794l-0.111-2.877l-2.473-1.125l0.185-0.886l0.019-2.309l2.433-0.361l1.092-2.694l-0.831-1.64l0.563-1.078l2.77-2.355
	l0.964-2.946l3.34-2.169l4.544,4.118l5.491,3.797l2.003,1.918l-0.465,1.742l-1.315,2.411l-1.02,4.401l-2.587,1.152l-1.356,0.608
	l0.32,0.631l2.659,0.555l1.294-0.418l0.463,3.729l-2.734,8.996l0.228,1.232l-2.756,4.885l-4.968,5.213l-3.81,2.962l-2.253,4.313
	l-2.742,1.628l-0.76-0.249l0.555-2.659l1.071-0.702l0.277-1.488l-3.615-1.815l-3.846-3.679l-2.139-3.752l-0.328-2.212L36.559,38.128
	z"/>
</svg>
