<?xml version="1.0" encoding="iso-8859-1"?>
<!-- Generator: Adobe Illustrator 18.1.1, SVG Export Plug-In . SVG Version: 6.00 Build 0)  -->
<!DOCTYPE svg PUBLIC "-//W3C//DTD SVG 1.1//EN" "http://www.w3.org/Graphics/SVG/1.1/DTD/svg11.dtd">
<svg version="1.1" id="Layer_1" xmlns="http://www.w3.org/2000/svg" xmlns:xlink="http://www.w3.org/1999/xlink" x="0px" y="0px"
	 viewBox="0 0 100 60" style="enable-background:new 0 0 100 60;" xml:space="preserve">
<path id="NY_1_" style="fill:#D3D3D3;" d="M68.247,55.175l0.573-1.432l0.154-1.344l-1.487-1.156l-3.36-1.817l-3.018-2.093
	l-0.286-0.286l-1.454-0.463l-0.936-1.046l-0.507-3.481l-1.762-0.639l-1.058-1.586l-22.041,0.233L15,39.89l0.44-3.635l1.013-0.485
	l0.837-0.463l0.727-0.771l1.112-0.408l1.245-0.782l0.452-0.826l1.454-1.256l0.716-0.43l0-0.573l-0.375-1.85l-0.969-0.308
	l-0.375-3.569l1.795-0.672l2.588-0.342l2.346-0.276l1.817,0.077l3.492,0.584l0.903,0.925l0.859,0.286l1.3-0.485l1.553-0.32
	l2.919,0.297l1.355-0.76l1.344-1.564l1.09-0.87l1.157,0.231l1.168-0.397l0.363-1.245l-0.595-1.322l0-0.859l0.837-1.035l0.165-0.826
	l-0.991-0.198l-0.903-0.639l-0.319-0.694l0.176-1.454l3.8-2.39l0.419-0.375l1.145-1.432l2.093-2.159l1.894-1.74l1.421-1.091
	l1.52-0.727l1.839-0.32L63,2.634l1.74,0.462l2.644-0.331l4.318-0.397l-0.154,2.776l0.606,3.844l-0.11,2.842l-1.013,2.203
	l0.936,2.765l0.22,1.19l-0.848,1.663l1.851,1.344l0.364,5.915l-0.639,3.194l-1.531,5.937l-0.154,3.062l-0.011,2.06l0.022,4.186
	L70.35,49.81l-0.859,1.146l0.859,1.718l0.176,0.551l-1.245,0.782l0.022,0.749l0.749-0.022l0.969-0.551l1.553-1.179l0.672-0.209
	l0.815,0.507l1.245,0.363l4.78-1.278l1.894-1.168l0.881-0.683L85,51.88l-2.269,1.608l-2.467,1.168l-4.494,2.137l-1.542,0.264
	l-3.404,0.408L68.5,57.631l-0.507-0.33L68.247,55.175z"/>
</svg>
