<?xml version="1.0" encoding="iso-8859-1"?>
<!-- Generator: Adobe Illustrator 18.1.1, SVG Export Plug-In . SVG Version: 6.00 Build 0)  -->
<!DOCTYPE svg PUBLIC "-//W3C//DTD SVG 1.1//EN" "http://www.w3.org/Graphics/SVG/1.1/DTD/svg11.dtd">
<svg version="1.1" id="Layer_1" xmlns="http://www.w3.org/2000/svg" xmlns:xlink="http://www.w3.org/1999/xlink" x="0px" y="0px"
	 viewBox="0 0 100 60" style="enable-background:new 0 0 100 60;" xml:space="preserve">
<path id="NC" style="fill:#D3D3D3;" d="M59.393,42.451L52.779,36.5l-1.735-0.817l-10.005-0.619l-0.606-1.944l-1.402-1.608
	l-9.885-1.572l-4.456-0.297l-5.918,1.62l-4.304,0.829l-3.96-0.02l-8.043-0.673l0.517-2.402l1.146-0.575l1.667-0.11l0.837-2.158
	l2.575-1.036l2.463-0.447l3.062-1.675l2.847-0.862l0.77-1.805l2.838-1.778l0.3,0.667l1.449,0.397l1.815-1.851l1.045-0.045
	l1.497,0.467l1.506-2.153l1.74-1.133l0.495-1.004l0.45-2.049l2.579,0.551l23.285,1.006l35.217-0.814l0.641,3.049l1.392,4.228
	l1.144,1.681l0.096,1.421l-1.435-0.15l0.404,0.443l-0.646,2.438l-1.676,0.475l-0.588,1.169l-1.089,1.562l-2.356,0.528l-1.379-0.445
	l-0.86-0.285l-0.796-0.944l0.031,0.799l-0.112,0.589l1.118,0.212l0.326,0.855l-1.822,3.496l2.472,0.469l0.174,1.009l1.611-1.097
	l0.821-0.149l-1.521,1.907l-2.361,2.479l-0.765-0.145l-0.592-0.417l-1.656,0.051l-3.329,0.831l-4.418,2.393l-2.526,2.386
	l-1.845,3.613l-0.562,1.357l-2.822-0.231l-3.169,0.313L59.393,42.451z M91.337,32.54l1.81-1.181l2.174-1.173l0.95-0.186l0.341-1.155
	l0.329-3.657l-0.626-1.521l-0.141-1.185l0.434-0.039l0.975,3.539l-0.256,2.634l-0.498,1.979l-2.169,0.503l-1.916,1.1l-0.782,0.583
	L91.337,32.54z"/>
</svg>
