<?xml version="1.0" encoding="iso-8859-1"?>
<!-- Generator: Adobe Illustrator 18.1.1, SVG Export Plug-In . SVG Version: 6.00 Build 0)  -->
<!DOCTYPE svg PUBLIC "-//W3C//DTD SVG 1.1//EN" "http://www.w3.org/Graphics/SVG/1.1/DTD/svg11.dtd">
<svg version="1.1" id="Layer_1" xmlns="http://www.w3.org/2000/svg" xmlns:xlink="http://www.w3.org/1999/xlink" x="0px" y="0px"
	 viewBox="0 0 100 60" style="enable-background:new 0 0 100 60;" xml:space="preserve">
<path id="OH" style="fill:#D3D3D3;" d="M26.367,7.699l-0.101,10.548l-0.071,27.993l2.636,0.178l1.609-0.353l2.274,1.498l0.805,2.958
	l3.619,0.5l1.049,1.488l1.142,0.136l1.724-0.748l2.042,0.584L44,53.476l1.369-1.199l1.657-0.756l1.644-0.076l0.187,1.862l0.995,0.8
	l1.586,1.552l0.521,0.198l1.351,0.093l0.854-0.307l0.168-1.411l1.262-0.871l0.452-3.216l1.076-2.733l1.381-0.721l0.616,0.55
	l0.584,0.819l0.454,0.19l0.301-0.237l-0.388-1.886l0.176-1.478l0.851-0.852l1.968-2.218l0.994-0.903l1.438,0.512l1.531-0.839
	l2.28-1.976l1.774-2.309l0.567-3.611l0.737-3.319l0.369-3.09l-0.55-2.246l0.95-1.113l0.969-0.702l-0.179-1.929L73.111,2.514
	l-4.461,1.988l-2.804,1.232l-2.581,2.213l-3,2.299l-2.214,0.281l-1.988,0.103l-3.903,1.306l-1.427-0.034l-2.035-2.355l-3.541-0.014
	L43.53,8.317l-1.374-1.05L26.367,7.699z"/>
</svg>
