<?xml version="1.0" encoding="iso-8859-1"?>
<!-- Generator: Adobe Illustrator 18.1.1, SVG Export Plug-In . SVG Version: 6.00 Build 0)  -->
<!DOCTYPE svg PUBLIC "-//W3C//DTD SVG 1.1//EN" "http://www.w3.org/Graphics/SVG/1.1/DTD/svg11.dtd">
<svg version="1.1" id="Layer_1" xmlns="http://www.w3.org/2000/svg" xmlns:xlink="http://www.w3.org/1999/xlink" x="0px" y="0px"
	 viewBox="0 0 100 60" style="enable-background:new 0 0 100 60;" xml:space="preserve">
<path id="OK_1_" style="fill:#D3D3D3;" d="M36.392,15.348l-0.568,14.14l-0.169,10.466l0.147,0.925l2.392,2.011l1.004,0.489
	l0.522-0.018l0.481-1.237l0.908,1.073l0.931,0.027l0.17-0.122l0.095-0.642l1.653,0.758l-0.163,2.039l2.216,0.216l1.471,0.531
	l2.45,0.266l1.366,0.884l1.418-1.036l2.045,0.338l1.338,1.756l0.699,0.035l0.045,1.335l1.233,0.365l1.41-1.268l1.057,0.313
	l1.569,0.005l0.451,1.321l2.589,0.958l0.981-0.207l1.02-2.475l0.755-0.026l0.68,1.197l2.454,0.382l1.999,0.688l1.757,0.405
	l0.915-0.438l0.353-1.581l2.612-0.088l1.121,0.485l1.53-1.156l0.813-0.027l0.376,0.801l2.09-0.071l1.126-1.084l1.347,0.303
	l1.03,1.244l1.775,0.928l1.991,0.456L93,51.672l-0.912-21.819l-1.027-6.299l-0.227-4.99l-1-3.802l-0.482-3.935l-0.026-2.498
	L82.019,8.75L55.134,9.368L29.146,9.026L5.022,8.796L5,15.014L36.392,15.348z"/>
</svg>
