<?xml version="1.0" encoding="iso-8859-1"?>
<!-- Generator: Adobe Illustrator 18.1.1, SVG Export Plug-In . SVG Version: 6.00 Build 0)  -->
<!DOCTYPE svg PUBLIC "-//W3C//DTD SVG 1.1//EN" "http://www.w3.org/Graphics/SVG/1.1/DTD/svg11.dtd">
<svg version="1.1" id="Layer_1" xmlns="http://www.w3.org/2000/svg" xmlns:xlink="http://www.w3.org/1999/xlink" x="0px" y="0px"
	 viewBox="0 0 100 60" style="enable-background:new 0 0 100 60;" xml:space="preserve">
<path id="OR" style="fill:#D3D3D3;" d="M40.587,55.452l15.73-0.174l15.257-0.439l9.381-0.436l-0.294-19.53l0.014-2.462l0.486-3.202
	l-0.546-0.581l-1.29,0.4l-0.928-0.758l0.104-0.866l-0.251-1.777L79.909,22l0.866-0.734l0.358-0.542l-0.011-1.506l0.264-0.685
	l1.241-3.515L84,12.417l-0.349-1.728l-2.12-0.826l-1.259-2.206l-7.365-0.175l-8.462,0.319l-7.667,2.252l-0.756-0.53l-2.404,1.669
	l-2.414,0.376l-1.472-0.49l-0.603,0.463l-2.481,0.5l-1.221-0.473l-2.771-0.25l-0.583,0.117l-2.498-0.043l-0.706,1.038l-3.298,0.746
	l-3.305-1.269l-1.182-4.869l-1.556-1.54l-2.222,0.258l-0.713-1.206l-1.321,0.073l-2.733,1.902l-0.295,3.71l-0.277,5.661
	l-0.764,3.835l-0.646,8.049l-1.498,7.997l-2.471,7.698L16,45.252l0.779,4.597l0.157,3.31l1.9,1.448L40.587,55.452z"/>
</svg>
