<?xml version="1.0" encoding="iso-8859-1"?>
<!-- Generator: Adobe Illustrator 18.1.1, SVG Export Plug-In . SVG Version: 6.00 Build 0)  -->
<!DOCTYPE svg PUBLIC "-//W3C//DTD SVG 1.1//EN" "http://www.w3.org/Graphics/SVG/1.1/DTD/svg11.dtd">
<svg version="1.1" id="Layer_1" xmlns="http://www.w3.org/2000/svg" xmlns:xlink="http://www.w3.org/1999/xlink" x="0px" y="0px"
	 viewBox="0 0 100 60" style="enable-background:new 0 0 100 60;" xml:space="preserve">
<path id="PA_1_" style="fill:#D3D3D3;" d="M15.625,9.023l1.155-0.198l5.612-3.597l-0.562,5.81l28.718,0.17l31.739-0.341l1.518,2.278
	l2.492,0.842l0.725,4.952l1.667,1.964l2.244,0.793L91,21.795l-2.674,2.211l-0.512,2.558l-2.08,2.244l-0.479,1.535l0.858,1.288
	l-0.479,1.535l-2.162,0.511l0.264,2.971l-0.017,0.941l2.261,0.71l0.33,2.212l4.224,4.193l-0.066,0.33l-3.054,1.964l-1.601,1.568
	l-1.865,2.03l-2.426,0.544l-1.205,0.016l-1.948,0.726l-1.552,0.891L57.622,52.62l-33.224,0.044l-9.556-0.711l-3.334-0.067L11,32.558
	l0.73-22.083L15.625,9.023z"/>
</svg>
