<?xml version="1.0" encoding="iso-8859-1"?>
<!-- Generator: Adobe Illustrator 18.1.1, SVG Export Plug-In . SVG Version: 6.00 Build 0)  -->
<!DOCTYPE svg PUBLIC "-//W3C//DTD SVG 1.1//EN" "http://www.w3.org/Graphics/SVG/1.1/DTD/svg11.dtd">
<svg version="1.1" id="Layer_1" xmlns="http://www.w3.org/2000/svg" xmlns:xlink="http://www.w3.org/1999/xlink" x="0px" y="0px"
	 viewBox="0 0 100 60" style="enable-background:new 0 0 100 60;" xml:space="preserve">	<polygon points="64.217,31.653 64.234,31.621 65.238,29.813 65.389,29.087 65.462,28.732 65.459,28.711 65.373,28.144 65.3,27.66 
		65.279,27.523 66.019,26.945 66.193,26.571 66.138,26.481 65.546,25.571 65.033,24.783 64.505,23.971 64.152,23.428 62.863,22.693 
		62.802,22.658 62.278,22.36 62.124,22.272 60.995,21.627 60.43,21.294 60.346,21.137 60.354,20.822 60.316,20.725 60.291,20.659 
		60.193,20.409 60.099,20.243 59.992,20.22 59.797,20.106 59.719,19.956 59.714,19.814 59.8,19.499 59.801,19.342 59.824,19.207 
		59.808,19.154 59.365,18.094 59.496,17.728 59.598,17.626 59.795,17.43 59.908,17.303 60.043,17.169 59.748,16.672 59.745,16.668 
		59.729,16.641 59.694,16.582 59.676,16.552 59.675,16.545 59.657,16.478 59.654,16.469 59.659,16.458 59.906,15.764 60.095,15.235 
		60.102,15.215 60.121,15.16 60.115,15.133 59.913,14.349 59.863,14.155 59.748,13.711 59.812,13.083 59.837,12.826 59.837,12.811 
		59.873,12.452 59.481,12.513 59.419,12.523 59.318,12.539 59.088,12.575 58.998,12.586 58.976,12.589 58.539,12.654 58.415,12.668 
		58.376,12.676 58.062,12.726 57.905,12.74 57.748,12.769 57.462,12.828 57.472,11.243 57.472,11.2 57.472,11.151 57.475,10.616 
		57.481,10.601 57.486,10.1 57.499,8.739 57.503,8.374 57.511,7.459 57.507,7.317 57.516,6.124 57.523,5.144 57.526,4.834 
		57.536,3.411 55.668,3.433 55.669,3.429 55.666,3.433 55.268,3.438 53.247,3.46 51.831,3.476 51.629,3.478 51.515,3.479 
		51.409,3.481 50.91,3.486 50.91,3.486 50.854,3.493 50.793,3.499 50.253,3.549 49.691,3.602 49.526,3.618 49.377,3.632 
		49.36,3.639 49.287,3.64 47.934,3.667 47.58,3.674 46.603,3.684 46.109,3.695 45.637,3.706 44.961,3.721 41.844,3.789 
		40.925,3.808 38.316,3.863 36.624,3.898 36.027,3.91 34.167,4.016 34.176,7.578 34.181,9.465 34.183,9.577 34.191,9.978 
		34.208,10.904 34.202,10.904 34.18,10.91 34.208,10.904 34.275,14.475 34.294,15.469 34.295,15.539 34.314,16.537 34.313,16.609 
		34.365,18.969 34.364,19.094 34.43,21.849 34.471,25.263 34.507,27.23 34.496,27.235 34.507,27.231 34.565,30.419 34.384,34.847 
		34.209,38.701 34.145,40.087 34.05,42.175 33.912,45.194 33.856,46.416 33.856,46.419 33.846,46.432 33.856,46.424 33.836,46.851 
		33.8,47.634 33.784,47.998 33.777,48.137 33.767,48.351 33.001,48.2 32.601,48.122 32.404,48.211 31.395,48.669 31.242,48.824 
		31.229,48.837 31.202,48.983 31.181,49.101 31.174,49.138 31.237,49.881 31.238,49.892 31.239,49.905 31.241,49.924 31.281,49.992 
		31.296,50.017 31.292,50.017 31.296,50.017 31.3,50.024 31.447,50.274 31.722,50.742 31.729,50.816 31.742,50.971 31.757,51.135 
		31.768,51.259 31.776,51.345 31.814,51.764 31.813,51.855 31.813,52.09 31.813,52.173 31.813,52.295 31.813,52.36 31.813,52.89 
		31.813,53.197 31.812,53.733 31.739,53.98 31.736,53.99 31.321,54.474 30.9,54.813 30.842,54.859 30.192,55.382 30.139,55.536 
		30.043,55.814 30,56.325 30.299,56.589 31.645,55.906 32.469,55.685 32.844,55.585 34.355,55.179 35.05,55.018 35.635,54.972 
		37.56,54.819 38.045,54.78 39.129,54.386 39.269,54.308 39.9,53.955 42.68,52.937 42.829,52.882 43.425,52.664 43.503,52.635 
		44.897,52.315 45.358,52.209 46.403,51.968 47.415,51.735 47.934,51.66 48.631,51.558 48.654,51.555 49.036,51.499 49.246,51.541 
		49.787,51.65 51.344,51.867 51.486,51.886 51.957,50.833 51.967,50.811 52.248,50.4 52.834,49.542 52.925,49.41 53.04,49.241 
		53.082,49.181 53.081,49.146 53.076,48.336 53.072,47.778 53.069,47.391 53.068,47.304 53.124,47.245 53.46,46.895 53.899,46.664 
		53.936,46.668 53.94,46.669 54.098,46.688 54.328,46.412 54.613,45.727 54.656,45.325 54.49,44.864 54.503,44.491 54.927,44.346 
		54.941,44.341 54.943,44.344 55.034,44.531 55.042,44.547 55.043,44.551 55.045,44.549 55.14,44.424 55.2,44.345 55.247,43.949 
		55.23,43.638 55.117,43.436 55.11,43.334 55.076,42.865 55.042,42.396 55.16,41.981 55.417,41.073 55.426,40.562 55.366,40.188 
		55.374,40.095 55.366,40.091 55.351,40.091 55.35,40.09 55.347,40.073 55.287,39.705 55.049,39.452 54.717,38.868 54.091,37.769 
		53.885,37.406 53.766,36.92 53.765,36.917 53.662,36.495 53.603,36.255 54.516,36.015 56.081,35.603 55.956,33.119 55.911,32.224 
		55.836,30.738 55.805,30.103 54.901,29.487 54.641,29.729 53.969,29.918 53.833,29.957 53.828,29.958 53.82,29.902 53.762,29.516 
		53.715,29.206 53.568,28.232 53.593,28.195 53.76,27.953 53.804,27.969 53.986,28.038 53.919,28.167 54.016,28.307 54.685,28.398 
		55.323,28.484 56.27,28.495 56.819,28.501 56.869,28.502 56.931,28.553 56.926,28.567 56.855,28.762 56.901,29.416 57.339,29.763 
		57.571,29.814 57.851,29.372 58.099,28.379 58.269,27.697 58.271,27.438 58.272,27.213 58.274,26.926 58.275,26.752 58.277,26.447 
		58.279,26.443 58.955,25.47 58.982,25.439 59.164,25.236 59.572,25.188 60.623,25.43 61.141,25.549 61.344,25.704 61.648,25.938 
		62.229,26.801 62.459,27.141 62.425,27.46 62.404,27.66 62.376,27.927 62.346,28.214 62.017,28.724 61.81,28.706 61.611,29.393 
		61.736,30.727 61.866,31.088 61.992,31.122 62.481,30.16 62.649,29.406 62.924,29.402 63.057,29.4 63.158,29.615 63.168,29.636 
		63.176,29.78 63.183,29.736 63.185,29.724 63.191,29.685 63.268,29.85 63.538,30.425 63.68,30.728 63.629,30.913 63.796,31.475 
		64.174,31.635 64.175,31.637 64.184,31.645 64.186,31.654 64.188,31.666 64.2,31.689 64.202,31.702 64.21,31.65 	"/>
	<polyline points="60.77,42.723 60.887,43.124 60.901,43.169 60.919,43.493 60.927,43.64 60.947,44.011 60.801,44.088 
		60.796,44.091 59.846,44.598 59.789,44.587 59.609,44.551 59.222,44.476 59.219,44.477 59.106,44.543 58.777,44.734 58.425,44.939 
		58.404,44.951 58.333,45.284 58.385,45.341 58.609,45.589 58.986,46.006 59.74,46.153 59.741,46.153 59.746,46.15 59.758,46.144 
		60.662,45.656 60.763,45.672 61.152,45.733 61.152,45.973 61.225,46.018 61.622,45.743 61.843,44.819 61.846,44.807 62.002,44.155 
		62.051,43.948 62.131,43.613 62.157,43.508 62.289,43.444 62.692,43.252 62.741,43.248 62.742,43.248 62.866,43.24 63.698,43.186 
		63.72,43.185 63.737,43.184 63.747,43.183 63.868,43.175 64.549,43.403 64.925,43.75 64.917,43.882 64.882,44.45 64.91,44.432 
		65.221,44.233 65.225,44.22 65.416,43.682 65.447,43.597 65.44,43.534 65.424,43.365 65.424,43.359 65.344,43.336 65.289,42.819 
		65.235,42.314 65.235,42.307 65.265,42.232 65.603,41.398 65.665,41.245 65.871,40.737 65.955,40.231 65.574,39.911 65.47,39.662 
		65.488,38.418 65.506,37.118 65.512,36.745 65.228,36.092 65.119,35.843 65.095,35.788 65.23,33.937 65.246,33.726 65.269,33.41 
		65.374,33.375 65.439,33.353 65.94,33.185 66.468,33.008 66.609,32.961 66.609,32.961 66.652,32.947 66.874,33.126 66.876,33.14 
		66.88,33.141 66.884,33.154 66.869,33.368 66.86,33.487 66.844,34.103 67.116,34.81 67.1,35.397 67.089,35.827 67.058,37.031 
		66.773,38.92 66.787,38.967 67.484,41.281 67.164,42.416 67.471,42.645 67.54,42.695 67.555,42.976 68.073,43.539 68.08,43.99 
		67.704,45.002 67.689,45.275 67.795,45.431 67.905,45.514 69.197,45.066 69.356,44.51 70.889,43.431 70.841,43.125 71.081,42.826 
		71.213,42.788 72,42.566 71.903,40.713 71.619,37.639 71.417,35.452 71.4,35.331 71.072,34.682 70.898,34.491 70.881,34.318 
		70.849,33.668 70.892,33.251 70.909,33.082 71.179,32.745 71.25,31.786 71.251,31.781 71.357,30.471 71.344,30.369 71.243,30.338 
		71.215,30.338 70.615,30.165 70.159,30.065 69.692,29.95 68.918,29.761 68.918,29.731 68.924,29.513 68.627,29.43 68.443,29.385 
		68.071,29.293 68.071,29.299 67.964,29.272 67.891,29.254 67.821,29.232 67.821,29.232 67.458,30.192 67.416,30.304 67.087,31.175 
		66.883,31.714 66.795,31.723 65.018,31.908 64.692,31.942 64.446,32.172 64.423,32.194 64.417,32.182 64.422,32.195 64.422,32.195 
		64.102,32.496 64.066,32.53 64.027,32.567 63.588,32.979 63.518,33.045 63.327,33.385 63.484,33.716 63.438,34.162 63.429,34.255 
		63.423,34.319 63.293,34.753 63.116,35.343 63.071,35.492 62.753,36.555 62.57,36.843 62.564,36.845 62.232,36.98 61.837,37.624 
		61.829,37.637 61.705,37.839 61.671,37.922 61.628,38.03 61.504,38.336 61.312,38.812 61.164,39.73 60.769,40.207 60.157,40.947 
		60.157,41.001 60.16,41.747 60.322,42.006 60.585,42.095 60.66,42.348 	"/>
	<polygon points="61.29,33.094 61,32.984 61,32.983 60.768,32.501 59.976,32.301 59.298,31.779 59.389,31.413 59.709,31.313 
		59.765,31.177 59.631,30.365 59.089,29.991 58.787,30.052 58.09,30.191 58.271,30.907 58.589,31.412 59.18,32.353 59.925,32.559 
		60.34,32.978 60.296,33.568 60.127,34.093 59.89,34.335 59.7,35.171 59.758,35.83 60.023,36.25 60.309,36.382 60.797,36.039 
		61.371,34.933 61.504,34.289 	"/>
	<polygon points="63.385,31.985 63.171,31.295 62.981,31.227 62.898,31.509 62.687,31.636 62.852,32.006 	"/>
	<polygon points="58.239,42.64 58.182,42.115 58.207,41.636 58.229,41.23 58.232,41.172 58.399,38.041 58.197,36.949 57.825,36.714 
		57.726,36.742 57.632,36.769 57.325,37.175 57.013,38.001 56.739,39.316 56.582,40 56.569,40 56.565,40 56.568,40.3 56.625,41.08 
		57.271,41.812 57.302,41.865 56.972,42.552 56.869,42.768 56.338,42.832 56.062,45.176 56.112,46.103 56.639,45.623 56.698,45.206 
		57.021,44.895 57.174,44.163 58.337,43.528 58.29,43.105 	"/>
	</svg>
