<?xml version="1.0" encoding="iso-8859-1"?>
<!-- Generator: Adobe Illustrator 18.1.1, SVG Export Plug-In . SVG Version: 6.00 Build 0)  -->
<!DOCTYPE svg PUBLIC "-//W3C//DTD SVG 1.1//EN" "http://www.w3.org/Graphics/SVG/1.1/DTD/svg11.dtd">
<svg version="1.1" id="Layer_1" xmlns="http://www.w3.org/2000/svg" xmlns:xlink="http://www.w3.org/1999/xlink" x="0px" y="0px"
	 viewBox="-50 70 100 60" style="enable-background:new -50 70 100 60;" xml:space="preserve">
<path id="SD" style="fill:#D3D3D3;" d="M37.344,110.787l-0.465,2.1l0.368,1.924L39,116.008l-0.578,3.532l-1.013,2.714l1.089,2.077
	l0.492,0.685l-0.837,0.112l-0.511-1.008l-0.46-1.27l-2.198-1.042l-3.155-0.794l-1.662-0.749l-1.87,0.171l-2.505,0.401l-2.411,0.914
	l-3.563-2.262l-1.832-1.452l-7.012,0.914l-26.896-0.039L-39,118.787l0.065-16.076l0.569-22.066l0.076-3.245l36.9,0.446l36.82-0.975
	l0.098,1.744l-0.785,1.016l-1.237,1.042l0.016,1.424l0.791,1.382l2.773,2.048l0.421,1.726l1.308,23.191L37.344,110.787z"/>
</svg>
