<?xml version="1.0" encoding="iso-8859-1"?>
<!-- Generator: Adobe Illustrator 18.1.1, SVG Export Plug-In . SVG Version: 6.00 Build 0)  -->
<!DOCTYPE svg PUBLIC "-//W3C//DTD SVG 1.1//EN" "http://www.w3.org/Graphics/SVG/1.1/DTD/svg11.dtd">
<svg version="1.1" id="Layer_1" xmlns="http://www.w3.org/2000/svg" xmlns:xlink="http://www.w3.org/1999/xlink" x="0px" y="0px"
	 viewBox="-50 70 100 60" style="enable-background:new -50 70 100 60;" xml:space="preserve">
<path id="SC_1_" style="fill:#D3D3D3;" d="M-0.406,126.495l-1.475-0.992l-0.807-4.447l-1.631-2.02l-1.834-0.659l-0.617-3.646
	l-1.537-5.251l-2.973-1.833l-1.234-1.574l-0.615-2.101l-1.59-1.782l-1.593-1.241l-1.337-2.44l-2.149-2.174l-3.135-1.78l-0.145-1.103
	l-1.424-2.375l-0.209-1.19l-2.266-4.51l-2.583-0.307l-2.667-2.328L-33,81.699l0.006-1.081l0.633-1.142l2.187-0.679l-0.38-1.602
	l5.142-1.322l7.461-2.368l5.469,0.118l12.455,1.465l1.525,1.695l0.967,2.848l3.568-0.088l9.694,0.282l1.951,0.908l8.618,6.999
	L33,95.144l-4.614,3.487l-2.651,4.319l-1.086,4.707l-1.3,0.425L22.214,110l-1.882,0.184l-1.992,2.486l-2.345,1.738l-2.121,2.312
	l-1.3,0.425l-3.104,2.166l-2.215-0.175l0.396,2.532l-4.376,3.445l-1.919,0.951L-0.406,126.495z"/>
</svg>
