<?xml version="1.0" encoding="iso-8859-1"?>
<!-- Generator: Adobe Illustrator 18.1.1, SVG Export Plug-In . SVG Version: 6.00 Build 0)  -->
<!DOCTYPE svg PUBLIC "-//W3C//DTD SVG 1.1//EN" "http://www.w3.org/Graphics/SVG/1.1/DTD/svg11.dtd">
<svg version="1.1" id="Layer_1" xmlns="http://www.w3.org/2000/svg" xmlns:xlink="http://www.w3.org/1999/xlink" x="0px" y="0px"
	 viewBox="-50 70 100 60" style="enable-background:new -50 70 100 60;" xml:space="preserve">
<path id="TN_1_" style="fill:#D3D3D3;" d="M6.682,111.206l-7.728,0.004l-13.749,0.046l-22.143-0.422l-6.925-0.394l0.558-0.303
	l0.766-2.585l-0.51-2.17l2.404-1.138l0.367-1.441l0.931-2.452l2.261-5.399l0.591-3.249l0.186-0.101l7.207,0.538l7.999,0.256
	l0.266-2.276l2.053,0.128l17.962-0.311l31.87-0.166l6.106-0.329l4.457,0.287l1.505-0.984l0.745,0.245l-0.235,1.926l-0.319,0.914
	l-1.521,1.159l-1.128,2.021l-1.149-0.341l-1.452,0.399l-1.463,1.814l-0.808-0.192l-0.405-0.744L34.72,96.12l-2.729,2.111
	l-0.633,1.771l-2.575,1.064l-2.708,1.877l-2.303,0.675l-2.724,1.404l-0.543,2.074l-1.489,0.16l-1.26,0.888l-0.373,2.798
	L6.682,111.206z"/>
</svg>
