<?xml version="1.0" encoding="iso-8859-1"?>
<!-- Generator: Adobe Illustrator 18.1.1, SVG Export Plug-In . SVG Version: 6.00 Build 0)  -->
<!DOCTYPE svg PUBLIC "-//W3C//DTD SVG 1.1//EN" "http://www.w3.org/Graphics/SVG/1.1/DTD/svg11.dtd">
<svg version="1.1" id="Layer_1" xmlns="http://www.w3.org/2000/svg" xmlns:xlink="http://www.w3.org/1999/xlink" x="0px" y="0px"
	 viewBox="-50 70 100 60" style="enable-background:new -50 70 100 60;" xml:space="preserve">
<path id="TX" style="fill:#D3D3D3;" d="M-28.082,96.732l8.519,0.257l6.731-0.013l0.199-22.461l12.481-0.283l-0.033,5.355
	l0.046,4.132l0.076,0.454l1.07,0.87l0.474,0.221l0.412-0.028l0.096-0.282l0.174,0.195l0.552,0.009l0.242-0.154L2.954,84.96
	l0.237,0.099l-0.035,0.853l1.04,0.091l0.562,0.17l0.972,0.096l0.622,0.372l0.612-0.478l0.627,0.096l0.551,0.676l0.184,0.011
	l0.032,0.48l0.771,0.201l0.54-0.518l0.35,0.091l0.482-0.009l0.169,0.471l1.22,0.378l0.518-0.15l0.373-0.944l0.022-0.001l0.281,0.418
	l1.066,0.135l0.798,0.245l0.748,0.179l0.53-0.312l0.125-0.537l0.823-0.055l0.495,0.197l0.656-0.504l0.092-0.006l0.136,0.313
	l1.075-0.071l0.407-0.441l0.303,0.071l0.421,0.455l0.784,0.385l0.793,0.177l0.593,0.282l0.648,0.416l0.691-0.322l0.493,0.151
	l0.466,4.565l0.305,2.163l0.2,0.929l0.662,0.967l0.274,1.016l1.051,1.285l0.116,0.704l0.15,0.174l-0.042,1.772l-0.59,1.142
	l0.338,0.575l-0.075,0.559l-0.072,1.66l-0.251,0.706l0.133,0.956l-1.257,0.452l-2.196,1.181l-0.2,0.45l-0.566,0.473l-0.457,0.375
	l-0.285,0.202l-1.223,1.299l-0.586,0.522l-1.163,0.813l-1.267,0.636l-1.389,0.874l-0.389,0.371l-1.272,0.912l-0.768,0.189
	l-0.808,1.317l-0.911,0.129l-0.2,0.45l0.555,0.4l-0.259,1.281l-0.228,1.049l-0.192,0.909l-0.114,1.041l0.22,0.537l0.519,1.573
	l0.322,1.38l0.453,0.59l-0.206,0.358l-0.68,0.482l-1.363-0.805l-1.275-0.167l-0.289,0.134l-0.741-0.088l-1.009-0.645l-1.206-0.172
	l-1.791-0.661l-0.54-0.86l-0.396-1.467l-0.761-0.386l-0.173-0.517l0.128-0.146l0.017-0.782l-0.307-0.117l-0.153-0.22l0.23-1.026
	l-0.401-0.498l-0.752-0.249l-0.845-0.955l-0.925-1.455l-1.001-0.53l0.017-0.438l-1.4-2.732l-0.247-0.949l-0.441-0.407l-0.069-0.34
	l-1.454-1.121l-0.642-0.669l-0.017-0.251l-0.627-0.441l-1.572-0.148l-1.702-0.024l-0.745-0.479l-1.002,0.481l-0.8,0.398
	l-0.477,0.767l-0.172,0.862l-0.913,1.462l-0.512,0.585l-0.61-0.189l-0.429-0.224l-0.443-0.108l-0.928-0.466l-0.009-0.137
	l-0.441-0.407l-1.221-0.401l-1.812-1.671l-0.598-1.04l-0.124-1.853l-0.832-1.438l-0.156-0.61l-0.382-0.205l-0.284-0.464
	l-1.175-0.404l-0.322-0.346l-1.745-1.698l-0.347-0.712l-1.11-0.454l-0.409-0.98l-0.639-0.624l-0.396-0.088L-28.082,96.732z
	 M13.977,126.479l-0.246-1.615l-0.728-1.606l-0.244-1.592l0.218-1.899l0.649-1.629l0.718-1.289l0.677-0.873l0.14,0.037l-0.997,1.583
	l-0.907,1.554l-0.356,1.54l0.011,1.194l0.3,1.382l0.705,1.607l0.194,1.182l0.069,0.34L13.977,126.479z"/>
</svg>
