<?xml version="1.0" encoding="iso-8859-1"?>
<!-- Generator: Adobe Illustrator 18.1.1, SVG Export Plug-In . SVG Version: 6.00 Build 0)  -->
<!DOCTYPE svg PUBLIC "-//W3C//DTD SVG 1.1//EN" "http://www.w3.org/Graphics/SVG/1.1/DTD/svg11.dtd">
<svg version="1.1" id="Layer_1" xmlns="http://www.w3.org/2000/svg" xmlns:xlink="http://www.w3.org/1999/xlink" x="0px" y="0px"
	 viewBox="0 0 100 60" style="enable-background:new 0 0 100 60;" xml:space="preserve">
<path id="VA" style="fill:#D3D3D3;" d="M97.457,27.184L97,29.033l-2.376,2.206l-0.797,3.028l-0.058,2.33l-1.779,3.134l-1.689,1.016
	l-0.473-3.247l0.889-3.563l1.553-2.623l0.848-2.125l0.129-1.148L97.457,27.184z M52.016,50.047l-26.444-0.704l-3.197-0.62
	l-1.436-0.454l-1.89,0.982l-4.891-0.774l-7.068-0.117l-4.547-0.371l3.04-1.265l3.005-1.065l0.242-1.404l4.651-4.222l3.167-2.001
	l1.758-1.417l1.911,3.289l2.436,1.039l1.92-0.357l1.51-0.772l1.466,1.079l3.224-0.339l1.643-2.745l1.523,0.744l2.404-1.169
	l1.023,0.452l2.24-1.816l0.445-1.782l-0.396-0.894l4.418-6.465l1.802-3.268l0.876-3.084l0.491-0.053l0.539,1.263l0.864,0.975
	l2.63,0.316l2.069-5.218l2.074-0.055l0.834-1.646l2.125-1.148l0.977-1.277l1.698-2.667l0.597-3.063l2.245,1.35l4.054,2.832
	l0.8-3.441l2.134,1.194l-0.735,1.869l5.391,3.063l0.728,1.364l-0.915,2.113l-1.019,0.719l-0.53,1.079l0.058,1.662l1.187,1.099
	l2.445,1.385l1.823,1.002l3.171,1.166l1.228,1.657l2.093,0.636l0.463,0.906l-0.809,3.095l0.809,0.896l-0.553,1.212l0.71,0.673
	l-0.295,0.913l-1.793-0.378l-0.118,1.081l1.364,1.268l-0.094,0.947l0.996,1.41l0.046,1.729l-1.899,0.636l0.897,1.187l4.072-0.468
	l1.759,4.57L52.016,50.047z"/>
</svg>
