<?xml version="1.0" encoding="iso-8859-1"?>
<!-- Generator: Adobe Illustrator 18.1.1, SVG Export Plug-In . SVG Version: 6.00 Build 0)  -->
<!DOCTYPE svg PUBLIC "-//W3C//DTD SVG 1.1//EN" "http://www.w3.org/Graphics/SVG/1.1/DTD/svg11.dtd">
<svg version="1.1" id="Layer_1" xmlns="http://www.w3.org/2000/svg" xmlns:xlink="http://www.w3.org/1999/xlink" x="0px" y="0px"
	 viewBox="-50 70 100 60" style="enable-background:new -50 70 100 60;" xml:space="preserve">
<path id="WA" style="fill:#D3D3D3;" d="M-20.145,117.027l-2.103-2.281l-2.637,0.224l-0.63-1.414l-1.635,0.029l-1.865,0.155
	l-0.949,0.904l-1.88-1.419l-0.278-1.834l1.615-0.616l0.346-2.718l-1.777-0.262l-0.468-2.31l2.614-1.072l-2.094-1.232l-2.058-4.133
	l-0.094-1.882l-1.262-4.865l-1.619-1.683l-0.084-6.156l1.373-0.027l1.941,1.403l2.078,1.17l2.274,0.659l3.107,0.575l2.005-0.125
	l2.025,0.461l2.254,0.073l1.384-0.49l-0.383-1.478l0.625-0.885l1.085-1.136l0.361,0.63l0.472,1.06l-1.337,0.675l0.151,1.341
	l1.348,0.637l1.06,1.303l0.673,1.074l0.892-0.363l-0.084-0.833l-0.824-0.641l-0.819-1.891l0.205-1.236l-0.609-0.828l-0.415-1.601
	l0.533-2.504l-1.093-1.426l-2.245-2.573l0.057-0.541l0.735-0.717l2.949,0.221l6.404,0.114l5.6-0.204l13.226,0.316l15.074-0.163
	l9.794-0.246l-0.152,11.58l0.555,13.546l0.501,10.55l1.22,5.717l0,0l-8.538-0.231l-9.974,0.305l-8.878,2.512l-0.922-0.766
	l-3.176,2.197l-2.469,0.364l-1.887-0.687l-0.943,0.672l-2.595,0.508l-1.27-0.539l-3.468-0.296l-0.752,0.09l-3.178-0.09l-0.919,1.323
	l-3.519,0.748l-3.374-1.327L-20.145,117.027z M-23.08,81.378l1.2-0.443l0.532,0.782l0.668-1.225l1.417-0.367l0.732,0.796
	l-0.652,1.286l0.497,0.397l-0.112,1.343l-0.798,0.47c0,0-0.539,0.205-0.586,0.02c-0.048-0.185,0.508-1.84,0.508-1.84l-1.143-0.098
	l0.055,0.971l-0.335,0.481l-1.291-1.177L-23.08,81.378z"/>
</svg>
