<?xml version="1.0" encoding="iso-8859-1"?>
<!-- Generator: Adobe Illustrator 18.1.1, SVG Export Plug-In . SVG Version: 6.00 Build 0)  -->
<!DOCTYPE svg PUBLIC "-//W3C//DTD SVG 1.1//EN" "http://www.w3.org/Graphics/SVG/1.1/DTD/svg11.dtd">
<svg version="1.1" id="Layer_1" xmlns="http://www.w3.org/2000/svg" xmlns:xlink="http://www.w3.org/1999/xlink" x="0px" y="0px"
	 viewBox="-50 70 100 60" style="enable-background:new -50 70 100 60;" xml:space="preserve">
<path id="WV" style="fill:#D3D3D3;" d="M12.165,96.128l4.678-3.449l1.878-0.249l1.272-0.845l1.285-1.337l0.721,0.333l2.152,0.222
	l3.576-1.94l1.088-0.17l0.777,0.837l1.647,1.125l1.713,2.408l-0.772,2.907l-3.408-2.41l-3.088-1.792l-0.751,4.04l-2.445,3.614
	l-2.269,1.313l-0.816,1.487l-2.118-0.004l-2.105,5.366l-1.946-0.187l-0.64-0.814l-0.593-1.512l-1.569,0.089l-0.933,3.444
	l-1.826,3.294l-4.707,6.976l0.456,1.065l-0.3,1.362l-1.8,1.462l-1.052-0.46l-2.395,1.221l-1.83-0.874l-1.803,3.157l-2.726,0.247
	l-1.566-1.182l-1.937,1.016l-1.66,0.215l-2.105-0.92l-2.089-3.53l-2.149-1.916l-1.428-2.006l-1.563-2.877l-0.078-1.637l-1.726-1.491
	l-0.262-0.962l0.511-3.869l0.194,0.103l1.671,0.14l1.352-0.479l0.254-1.511l1.341-0.834l0.67-3.559l1.035-2.368l0.836-0.354
	l0.24,0.252l0.56,0.871l1.11,0.54l0.906-0.766l-0.328-2.244l0.185-1.099l2.661-2.8l0.974-0.754l1.316,0.575l1.994-0.936l2.522-1.976
	l2.123-2.538l0.785-3.822l0.899-3.238l0.567-3.365l-0.408-2.187l0.768-0.789l0.63-0.388L1.038,87.12l3.046-0.052l7.842,0.403
	L12.165,96.128z"/>
</svg>
