<?xml version="1.0" encoding="iso-8859-1"?>
<!-- Generator: Adobe Illustrator 18.1.1, SVG Export Plug-In . SVG Version: 6.00 Build 0)  -->
<!DOCTYPE svg PUBLIC "-//W3C//DTD SVG 1.1//EN" "http://www.w3.org/Graphics/SVG/1.1/DTD/svg11.dtd">
<svg version="1.1" id="Layer_1" xmlns="http://www.w3.org/2000/svg" xmlns:xlink="http://www.w3.org/1999/xlink" x="0px" y="0px"
	 viewBox="-50 70 100 60" style="enable-background:new -50 70 100 60;" xml:space="preserve">
<path id="WI_1_" style="fill:#D3D3D3;" d="M-15.871,76.886l1.509,0.361l1.546-0.218l4.002-1.434l1.59-0.902l1.132-0.35l0.949,0.853
	l-0.616,0.542l-1.105,1.567l-0.38,0.98l0.506,0.35l0.981-0.466l0.586-0.068l1.394,0.512l0.278,0.599l0.572,0.142l0.353-0.559
	l1.926,2.924l4.274,0.908l4.241,1.435l1.331,0.667l6.385,1.784l0.764,1.264l1.854,0.753l0.55,5.425l0.794,0.791l0.759,0.524
	l-0.656,1.173l-1.001,0.781l-1.264,2.402l-0.765,1.219l0.044,0.954l0.779,0.209l0.643-0.962l0.817-0.37l0.499-1.183l1.061-0.883
	l1.556-2.014l2.423-3.173l0.438-0.236L25,93.723l-0.183,1.204l-1.756,3.48l-1.613,2.908l-0.371,1.667l-0.404,1.348l0.377,0.711
	l-0.196,1.414l-1.081,1.199l-0.324,0.93l0.194,1.915l0.201,1.81l-0.877,1.318l-0.519,1.499l-0.631,1.597l0.498,1.3l0.11,3.23
	l0.69,2.422l-0.206,1.572l-8.428,0.41l-9.242-0.065l-6.683-0.429l-0.317-0.813l-1.513-0.308l-1.324-0.772l-1.085-2.024l-0.036-1.904
	l1.15-1.459l-0.216-0.754l-1.031-1.229l-0.31-1.763l-0.086-3.598l-1.021-1.387l-3.532-2.605l-1.817-2.97l-1.756-0.641l-1.063-1.547
	l-1.684-0.108l-1.414-1.834l-0.043-3.437l0.181-1.996l0.894-1.58l-0.313-1.711L-23,89.162l1.13-2.78l2.864-1.824l0.906-0.946
	l0.169-4.269l0.2-1.466l1.357-1.392L-15.871,76.886z"/>
</svg>
